  0
SECTION
  2
HEADER
  9
$ACADVER
  1
AC1024
  9
$ACADMAINTVER
 70
     6
  9
$DWGCODEPAGE
  3
UNDEFINED
  9
$INSBASE
 10
0.0
 20
0.0
 30
0.0
  9
$EXTMIN
 10
1.000000000000000E+20
 20
1.000000000000000E+20
 30
1.000000000000000E+20
  9
$EXTMAX
 10
-1.000000000000000E+20
 20
-1.000000000000000E+20
 30
-1.000000000000000E+20
  9
$LIMMIN
 10
0.0
 20
0.0
  9
$LIMMAX
 10
12.0
 20
9.0
  9
$ORTHOMODE
 70
     0
  9
$REGENMODE
 70
     1
  9
$FILLMODE
 70
     1
  9
$QTEXTMODE
 70
     0
  9
$MIRRTEXT
 70
     1
  9
$LTSCALE
 40
1.0
  9
$ATTMODE
 70
     1
  9
$TEXTSIZE
 40
0.2
  9
$TRACEWID
 40
0.05
  9
$TEXTSTYLE
  7
Standard
  9
$CLAYER
  8
0
  9
$CELTYPE
  6
ByLayer
  9
$CECOLOR
 62
   256
  9
$CELTSCALE
 40
1.0
  9
$DISPSILH
 70
     0
  9
$DIMSCALE
 40
1.0
  9
$DIMASZ
 40
0.18
  9
$DIMEXO
 40
0.0625
  9
$DIMDLI
 40
0.38
  9
$DIMRND
 40
0.0
  9
$DIMDLE
 40
0.0
  9
$DIMEXE
 40
0.18
  9
$DIMTP
 40
0.0
  9
$DIMTM
 40
0.0
  9
$DIMTXT
 40
0.18
  9
$DIMCEN
 40
0.09
  9
$DIMTSZ
 40
0.0
  9
$DIMTOL
 70
     0
  9
$DIMLIM
 70
     0
  9
$DIMTIH
 70
     1
  9
$DIMTOH
 70
     1
  9
$DIMSE1
 70
     0
  9
$DIMSE2
 70
     0
  9
$DIMTAD
 70
     0
  9
$DIMZIN
 70
     0
  9
$DIMBLK
  1

  9
$DIMASO
 70
     1
  9
$DIMSHO
 70
     1
  9
$DIMPOST
  1

  9
$DIMAPOST
  1

  9
$DIMALT
 70
     0
  9
$DIMALTD
 70
     2
  9
$DIMALTF
 40
25.4
  9
$DIMLFAC
 40
1.0
  9
$DIMTOFL
 70
     0
  9
$DIMTVP
 40
0.0
  9
$DIMTIX
 70
     0
  9
$DIMSOXD
 70
     0
  9
$DIMSAH
 70
     0
  9
$DIMBLK1
  1

  9
$DIMBLK2
  1

  9
$DIMSTYLE
  2
Standard
  9
$DIMCLRD
 70
     0
  9
$DIMCLRE
 70
     0
  9
$DIMCLRT
 70
     0
  9
$DIMTFAC
 40
1.0
  9
$DIMGAP
 40
0.09
  9
$DIMJUST
 70
     0
  9
$DIMSD1
 70
     0
  9
$DIMSD2
 70
     0
  9
$DIMTOLJ
 70
     1
  9
$DIMTZIN
 70
     0
  9
$DIMALTZ
 70
     0
  9
$DIMALTTZ
 70
     0
  9
$DIMUPT
 70
     0
  9
$DIMDEC
 70
     4
  9
$DIMTDEC
 70
     4
  9
$DIMALTU
 70
     2
  9
$DIMALTTD
 70
     2
  9
$DIMTXSTY
  7
Standard
  9
$DIMAUNIT
 70
     0
  9
$DIMADEC
 70
     0
  9
$DIMALTRND
 40
0.0
  9
$DIMAZIN
 70
     0
  9
$DIMDSEP
 70
    46
  9
$DIMATFIT
 70
     3
  9
$DIMFRAC
 70
     0
  9
$DIMLDRBLK
  1

  9
$DIMLUNIT
 70
     2
  9
$DIMLWD
 70
    -2
  9
$DIMLWE
 70
    -2
  9
$DIMTMOVE
 70
     0
  9
$DIMFXL
 40
1.0
  9
$DIMFXLON
 70
     0
  9
$DIMJOGANG
 40
0.7853981633974483
  9
$DIMTFILL
 70
     0
  9
$DIMTFILLCLR
 70
     0
  9
$DIMARCSYM
 70
     0
  9
$DIMLTYPE
  6

  9
$DIMLTEX1
  6

  9
$DIMLTEX2
  6

  9
$DIMTXTDIRECTION
 70
     0
  9
$LUNITS
 70
     2
  9
$LUPREC
 70
     4
  9
$SKETCHINC
 40
0.1
  9
$FILLETRAD
 40
0.5
  9
$AUNITS
 70
     0
  9
$AUPREC
 70
     0
  9
$MENU
  1
.
  9
$ELEVATION
 40
0.0
  9
$PELEVATION
 40
0.0
  9
$THICKNESS
 40
0.0
  9
$LIMCHECK
 70
     0
  9
$CHAMFERA
 40
0.5
  9
$CHAMFERB
 40
0.5
  9
$CHAMFERC
 40
1.0
  9
$CHAMFERD
 40
0.0
  9
$SKPOLY
 70
     0
  9
$TDCREATE
 40
2458903.67585647
  9
$TDUCREATE
 40
2458903.884189815
  9
$TDUPDATE
 40
2458903.67585647
  9
$TDUUPDATE
 40
2458903.884189815
  9
$TDINDWG
 40
0.0000000116
  9
$TDUSRTIMER
 40
0.0000000116
  9
$USRTIMER
 70
     1
  9
$ANGBASE
 50
0.0
  9
$ANGDIR
 70
     0
  9
$PDMODE
 70
     0
  9
$PDSIZE
 40
0.0
  9
$PLINEWID
 40
0.0
  9
$SPLFRAME
 70
     0
  9
$SPLINETYPE
 70
     6
  9
$SPLINESEGS
 70
     8
  9
$HANDSEED
  5
8F
  9
$SURFTAB1
 70
     6
  9
$SURFTAB2
 70
     6
  9
$SURFTYPE
 70
     6
  9
$SURFU
 70
     6
  9
$SURFV
 70
     6
  9
$UCSBASE
  2

  9
$UCSNAME
  2

  9
$UCSORG
 10
0.0
 20
0.0
 30
0.0
  9
$UCSXDIR
 10
1.0
 20
0.0
 30
0.0
  9
$UCSYDIR
 10
0.0
 20
1.0
 30
0.0
  9
$UCSORTHOREF
  2

  9
$UCSORTHOVIEW
 70
     0
  9
$UCSORGTOP
 10
0.0
 20
0.0
 30
0.0
  9
$UCSORGBOTTOM
 10
0.0
 20
0.0
 30
0.0
  9
$UCSORGLEFT
 10
0.0
 20
0.0
 30
0.0
  9
$UCSORGRIGHT
 10
0.0
 20
0.0
 30
0.0
  9
$UCSORGFRONT
 10
0.0
 20
0.0
 30
0.0
  9
$UCSORGBACK
 10
0.0
 20
0.0
 30
0.0
  9
$PUCSBASE
  2

  9
$PUCSNAME
  2

  9
$PUCSORG
 10
0.0
 20
0.0
 30
0.0
  9
$PUCSXDIR
 10
1.0
 20
0.0
 30
0.0
  9
$PUCSYDIR
 10
0.0
 20
1.0
 30
0.0
  9
$PUCSORTHOREF
  2

  9
$PUCSORTHOVIEW
 70
     0
  9
$PUCSORGTOP
 10
0.0
 20
0.0
 30
0.0
  9
$PUCSORGBOTTOM
 10
0.0
 20
0.0
 30
0.0
  9
$PUCSORGLEFT
 10
0.0
 20
0.0
 30
0.0
  9
$PUCSORGRIGHT
 10
0.0
 20
0.0
 30
0.0
  9
$PUCSORGFRONT
 10
0.0
 20
0.0
 30
0.0
  9
$PUCSORGBACK
 10
0.0
 20
0.0
 30
0.0
  9
$USERI1
 70
     0
  9
$USERI2
 70
     0
  9
$USERI3
 70
     0
  9
$USERI4
 70
     0
  9
$USERI5
 70
     0
  9
$USERR1
 40
0.0
  9
$USERR2
 40
0.0
  9
$USERR3
 40
0.0
  9
$USERR4
 40
0.0
  9
$USERR5
 40
0.0
  9
$WORLDVIEW
 70
     1
  9
$SHADEDGE
 70
     3
  9
$SHADEDIF
 70
    70
  9
$TILEMODE
 70
     1
  9
$MAXACTVP
 70
    64
  9
$PINSBASE
 10
0.0
 20
0.0
 30
0.0
  9
$PLIMCHECK
 70
     0
  9
$PEXTMIN
 10
1.000000000000000E+20
 20
1.000000000000000E+20
 30
1.000000000000000E+20
  9
$PEXTMAX
 10
-1.000000000000000E+20
 20
-1.000000000000000E+20
 30
-1.000000000000000E+20
  9
$PLIMMIN
 10
0.0
 20
0.0
  9
$PLIMMAX
 10
12.0
 20
9.0
  9
$UNITMODE
 70
     0
  9
$VISRETAIN
 70
     1
  9
$PLINEGEN
 70
     0
  9
$PSLTSCALE
 70
     1
  9
$TREEDEPTH
 70
  3020
  9
$CMLSTYLE
  2
Standard
  9
$CMLJUST
 70
     0
  9
$CMLSCALE
 40
1.0
  9
$PROXYGRAPHICS
 70
     1
  9
$MEASUREMENT
 70
     0
  9
$CELWEIGHT
370
    -1
  9
$ENDCAPS
280
     0
  9
$JOINSTYLE
280
     0
  9
$LWDISPLAY
290
     1
  9
$INSUNITS
 70
     1
  9
$HYPERLINKBASE
  1

  9
$STYLESHEET
  1

  9
$XEDIT
290
     1
  9
$CEPSNTYPE
380
     0
  9
$PSTYLEMODE
290
     1
  9
$FINGERPRINTGUID
  2
{600DB682-5CC1-4FDD-05F5-CD46986F11B1}
  9
$VERSIONGUID
  2
{FAEB1C32-E019-11D5-929B-00C0DF256EC4}
  9
$EXTNAMES
290
     1
  9
$PSVPSCALE
 40
0.0
  9
$OLESTARTUP
290
     0
  9
$SORTENTS
280
   127
  9
$INDEXCTL
280
     0
  9
$HIDETEXT
280
     1
  9
$XCLIPFRAME
280
     2
  9
$HALOGAP
280
     0
  9
$OBSCOLOR
 70
   257
  9
$OBSLTYPE
280
     0
  9
$INTERSECTIONDISPLAY
280
     0
  9
$INTERSECTIONCOLOR
 70
   257
  9
$DIMASSOC
280
     2
  9
$PROJECTNAME
  1

  9
$CAMERADISPLAY
290
     0
  9
$LENSLENGTH
 40
50.0
  9
$CAMERAHEIGHT
 40
0.0
  9
$STEPSPERSEC
 40
2.0
  9
$STEPSIZE
 40
6.0
  9
$3DDWFPREC
 40
2.0
  9
$PSOLWIDTH
 40
0.25
  9
$PSOLHEIGHT
 40
4.0
  9
$LOFTANG1
 40
1.570796326794897
  9
$LOFTANG2
 40
1.570796326794897
  9
$LOFTMAG1
 40
0.0
  9
$LOFTMAG2
 40
0.0
  9
$LOFTPARAM
 70
     7
  9
$LOFTNORMALS
280
     1
  9
$LATITUDE
 40
37.795
  9
$LONGITUDE
 40
-122.394
  9
$NORTHDIRECTION
 40
0.0
  9
$TIMEZONE
 70
 -8000
  9
$LIGHTGLYPHDISPLAY
280
     1
  9
$TILEMODELIGHTSYNCH
280
     1
  9
$CMATERIAL
347
3C
  9
$SOLIDHIST
280
     1
  9
$SHOWHIST
280
     1
  9
$DWFFRAME
280
     2
  9
$DGNFRAME
280
     2
  9
$REALWORLDSCALE
290
     1
  9
$INTERFERECOLOR
 62
   256
  9
$CSHADOW
280
     0
  9
$SHADOWPLANELOCATION
 40
0.0
  0
ENDSEC
  0
SECTION
  2
CLASSES
  0
CLASS
  1
ACDBDICTIONARYWDFLT
  2
AcDbDictionaryWithDefault
  3
ObjectDBX Classes
 90
        0
 91
        4
280
     0
281
     0
  0
CLASS
  1
VISUALSTYLE
  2
AcDbVisualStyle
  3
ObjectDBX Classes
 90
     4095
 91
        4
280
     0
281
     0
  0
CLASS
  1
MATERIAL
  2
AcDbMaterial
  3
ObjectDBX Classes
 90
     1153
 91
        4
280
     0
281
     0
  0
CLASS
  1
SUN
  2
AcDbSun
  3
SCENEOE
 90
     1024
 91
        4
280
     0
281
     0
  0
ENDSEC
  0
SECTION
  2
TABLES
  0
TABLE
  2
VPORT
  5
8
330
0
100
AcDbSymbolTable
 70
     1
  0
VPORT
  5
29
330
8
100
AcDbSymbolTableRecord
100
AcDbViewportTableRecord
  2
*Active
 70
     0
 10
0.0
 20
0.0
 11
1.0
 21
1.0
 12
0.0
 22
0.0
 13
0.0
 23
0.0
 14
0.5
 24
0.5
 15
0.5
 25
0.5
 16
0.0
 26
0.0
 36
1.0
 17
10.0
 27
-6.0
 37
0.0
 40
12.0
 41
1.666666666666667
 42
50.0
 43
0.0
 44
0.0
 50
0.0
 51
0.0
 71
     0
 72
   100
 73
     1
 74
     3
 75
     0
 76
     0
 77
     0
 78
     0
281
     0
 65
     1
110
0.0
120
0.0
130
0.0
111
1.0
121
0.0
131
0.0
112
0.0
122
1.0
132
0.0
 79
     0
146
0.0
 60
     3
 61
     5
292
     1
282
     1
141
0.0
142
0.0
 63
   250
361
3F
  0
ENDTAB
  0
TABLE
  2
LTYPE
  5
5
330
0
100
AcDbSymbolTable
 70
     1
  0
LTYPE
  5
14
330
5
100
AcDbSymbolTableRecord
100
AcDbLinetypeTableRecord
  2
ByBlock
 70
     0
  3

 72
    65
 73
     0
 40
0.0
  0
LTYPE
  5
15
330
5
100
AcDbSymbolTableRecord
100
AcDbLinetypeTableRecord
  2
ByLayer
 70
     0
  3

 72
    65
 73
     0
 40
0.0
  0
LTYPE
  5
16
330
5
100
AcDbSymbolTableRecord
100
AcDbLinetypeTableRecord
  2
Continuous
 70
     0
  3
Solid line
 72
    65
 73
     0
 40
0.0
  0
ENDTAB
  0
TABLE
  2
LAYER
  5
2
330
0
100
AcDbSymbolTable
 70
     4
  0
LAYER
  5
10
330
2
100
AcDbSymbolTableRecord
100
AcDbLayerTableRecord
  2
0
 70
     0
 62
     7
  6
Continuous
370
    -3
390
F
347
3E
  0
LAYER
  5
40
330
2
100
AcDbSymbolTableRecord
100
AcDbLayerTableRecord
  2
Dimension
 70
     0
 62
     7
  6
Continuous
370
    -3
390
F
347
3E
  0
LAYER
  5
51
330
2
100
AcDbSymbolTableRecord
100
AcDbLayerTableRecord
  2
Holes
 70
     0
 62
     7
  6
Continuous
370
    -3
390
F
347
3E
  0
LAYER
  5
7A
330
2
100
AcDbSymbolTableRecord
100
AcDbLayerTableRecord
  2
LEDs
 70
     0
 62
     7
  6
Continuous
370
    -3
390
F
347
3E
  0
ENDTAB
  0
TABLE
  2
STYLE
  5
3
330
0
100
AcDbSymbolTable
 70
     1
  0
STYLE
  5
11
330
3
100
AcDbSymbolTableRecord
100
AcDbTextStyleTableRecord
  2
Standard
 70
     0
 40
0.0
 41
1.0
 50
0.0
 71
     0
 42
0.2
  3
txt
  4

  0
ENDTAB
  0
TABLE
  2
VIEW
  5
6
330
0
100
AcDbSymbolTable
 70
     0
  0
ENDTAB
  0
TABLE
  2
UCS
  5
7
330
0
100
AcDbSymbolTable
 70
     0
  0
ENDTAB
  0
TABLE
  2
APPID
  5
9
330
0
100
AcDbSymbolTable
 70
     1
  0
APPID
  5
12
330
9
100
AcDbSymbolTableRecord
100
AcDbRegAppTableRecord
  2
ACAD
 70
     0
  0
ENDTAB
  0
TABLE
  2
DIMSTYLE
  5
A
330
0
100
AcDbSymbolTable
 70
     1
100
AcDbDimStyleTable
  0
DIMSTYLE
105
27
330
A
100
AcDbSymbolTableRecord
100
AcDbDimStyleTableRecord
  2
Standard
 70
     0
178
     0
340
11
  0
ENDTAB
  0
TABLE
  2
BLOCK_RECORD
  5
1
330
0
100
AcDbSymbolTable
 70
    11
  0
BLOCK_RECORD
  5
1F
330
1
100
AcDbSymbolTableRecord
100
AcDbBlockTableRecord
  2
*Model_Space
340
22
 70
     0
280
     1
281
     0
  0
BLOCK_RECORD
  5
1B
330
1
100
AcDbSymbolTableRecord
100
AcDbBlockTableRecord
  2
*Paper_Space
340
1E
 70
     0
280
     1
281
     0
  0
BLOCK_RECORD
  5
23
330
1
100
AcDbSymbolTableRecord
100
AcDbBlockTableRecord
  2
*Paper_Space0
340
26
 70
     0
280
     1
281
     0
  0
BLOCK_RECORD
  5
52
330
1
100
AcDbSymbolTableRecord
100
AcDbBlockTableRecord
  2
block 2
340
0
102
{BLKREFS
331
53
102
}
 70
     0
280
     1
281
     0
  0
BLOCK_RECORD
  5
56
330
1
100
AcDbSymbolTableRecord
100
AcDbBlockTableRecord
  2
block 3
340
0
102
{BLKREFS
331
57
102
}
 70
     0
280
     1
281
     0
  0
BLOCK_RECORD
  5
5A
330
1
100
AcDbSymbolTableRecord
100
AcDbBlockTableRecord
  2
block 4
340
0
102
{BLKREFS
331
5B
102
}
 70
     0
280
     1
281
     0
  0
BLOCK_RECORD
  5
5F
330
1
100
AcDbSymbolTableRecord
100
AcDbBlockTableRecord
  2
block 5
340
0
102
{BLKREFS
331
60
102
}
 70
     0
280
     1
281
     0
  0
BLOCK_RECORD
  5
63
330
1
100
AcDbSymbolTableRecord
100
AcDbBlockTableRecord
  2
block 6
340
0
102
{BLKREFS
331
64
102
}
 70
     0
280
     1
281
     0
  0
BLOCK_RECORD
  5
68
330
1
100
AcDbSymbolTableRecord
100
AcDbBlockTableRecord
  2
block 7
340
0
102
{BLKREFS
331
69
102
}
 70
     0
280
     1
281
     0
  0
BLOCK_RECORD
  5
6C
330
1
100
AcDbSymbolTableRecord
100
AcDbBlockTableRecord
  2
block 8
340
0
102
{BLKREFS
331
6D
102
}
 70
     0
280
     1
281
     0
  0
BLOCK_RECORD
  5
71
330
1
100
AcDbSymbolTableRecord
100
AcDbBlockTableRecord
  2
block 9
340
0
102
{BLKREFS
331
72
102
}
 70
     0
280
     1
281
     0
  0
BLOCK_RECORD
  5
75
330
1
100
AcDbSymbolTableRecord
100
AcDbBlockTableRecord
  2
block 10
340
0
102
{BLKREFS
331
76
102
}
 70
     0
280
     1
281
     0
  0
BLOCK_RECORD
  5
7B
330
1
100
AcDbSymbolTableRecord
100
AcDbBlockTableRecord
  2
block 11
340
0
102
{BLKREFS
331
7C
102
}
 70
     0
280
     1
281
     0
  0
ENDTAB
  0
ENDSEC
  0
SECTION
  2
BLOCKS
  0
BLOCK
  5
20
330
1F
100
AcDbEntity
  8
0
100
AcDbBlockBegin
  2
*Model_Space
 70
     0
 10
0.0
 20
0.0
 30
0.0
  3
*Model_Space
  1

  0
ENDBLK
  5
21
330
1F
100
AcDbEntity
  8
0
100
AcDbBlockEnd
  0
BLOCK
  5
1C
330
1B
100
AcDbEntity
 67
     1
  8
0
100
AcDbBlockBegin
  2
*Paper_Space
 70
     0
 10
0.0
 20
0.0
 30
0.0
  3
*Paper_Space
  1

  0
ENDBLK
  5
1D
330
1B
100
AcDbEntity
 67
     1
  8
0
100
AcDbBlockEnd
  0
BLOCK
  5
24
330
23
100
AcDbEntity
  8
0
100
AcDbBlockBegin
  2
*Paper_Space0
 70
     0
 10
0.0
 20
0.0
 30
0.0
  3
*Paper_Space0
  1

  0
ENDBLK
  5
25
330
23
100
AcDbEntity
  8
0
100
AcDbBlockEnd
  0
BLOCK
  5
54
330
52
100
AcDbEntity
  8
0
100
AcDbBlockBegin
  2
block 2
 70
     0
 10
0.0
 20
0.0
 30
0.0
  3
block 2
  1

  0
INSERT
  5
57
330
52
100
AcDbEntity
  8
Holes
100
AcDbBlockReference
  2
block 3
 10
0.0
 20
0.0
 30
0.0
  0
INSERT
  5
60
330
52
100
AcDbEntity
  8
Holes
100
AcDbBlockReference
  2
block 5
 10
0.0
 20
0.0
 30
0.0
  0
INSERT
  5
69
330
52
100
AcDbEntity
  8
Holes
100
AcDbBlockReference
  2
block 7
 10
0.0
 20
0.0
 30
0.0
  0
INSERT
  5
72
330
52
100
AcDbEntity
  8
Holes
100
AcDbBlockReference
  2
block 9
 10
0.0
 20
0.0
 30
0.0
  0
ENDBLK
  5
55
330
52
100
AcDbEntity
  8
0
100
AcDbBlockEnd
  0
BLOCK
  5
58
330
56
100
AcDbEntity
  8
0
100
AcDbBlockBegin
  2
block 3
 70
     0
 10
0.0
 20
0.0
 30
0.0
  3
block 3
  1

  0
INSERT
  5
5B
330
56
100
AcDbEntity
  8
Holes
100
AcDbBlockReference
  2
block 4
 10
0.0
 20
0.0
 30
0.0
  0
ENDBLK
  5
59
330
56
100
AcDbEntity
  8
0
100
AcDbBlockEnd
  0
BLOCK
  5
5C
330
5A
100
AcDbEntity
  8
0
100
AcDbBlockBegin
  2
block 4
 70
     0
 10
0.0
 20
0.0
 30
0.0
  3
block 4
  1

  0
SPLINE
  5
5E
330
5A
100
AcDbEntity
  8
Holes
 62
   174
370
    35
100
AcDbSpline
210
0.0
220
0.0
230
1.0
 70
    11
 71
     3
 72
    17
 73
    13
 74
     0
 42
0.0000000001
 43
0.0000000001
 12
1.0
 22
0.0
 32
0.0
 13
1.0
 23
0.0
 33
0.0
 40
0.0
 40
0.0
 40
0.0
 40
0.0
 40
1.0
 40
1.0
 40
1.0
 40
2.0
 40
2.0
 40
2.0
 40
3.0
 40
3.0
 40
3.0
 40
4.0
 40
4.0
 40
4.0
 40
4.0
 10
2.069347803453613
 20
-2.645375190744592
 30
0.0
 10
2.069347803453613
 20
-2.670380208944203
 30
0.0
 10
2.049077231102021
 20
-2.69065078129577
 30
0.0
 10
2.024072212902411
 20
-2.69065078129577
 30
0.0
 10
1.999067194702825
 20
-2.69065078129577
 30
0.0
 10
1.978796622351233
 20
-2.670380208944203
 30
0.0
 10
1.978796622351233
 20
-2.645375190744592
 30
0.0
 10
1.978796622351233
 20
-2.620370172544982
 30
0.0
 10
1.999067194702825
 20
-2.600099600193415
 30
0.0
 10
2.024072212902411
 20
-2.600099600193415
 30
0.0
 10
2.049077231102021
 20
-2.600099600193415
 30
0.0
 10
2.069347803453613
 20
-2.620370172544982
 30
0.0
 10
2.069347803453613
 20
-2.645375190744592
 30
0.0
  0
ENDBLK
  5
5D
330
5A
100
AcDbEntity
  8
0
100
AcDbBlockEnd
  0
BLOCK
  5
61
330
5F
100
AcDbEntity
  8
0
100
AcDbBlockBegin
  2
block 5
 70
     0
 10
0.0
 20
0.0
 30
0.0
  3
block 5
  1

  0
INSERT
  5
64
330
5F
100
AcDbEntity
  8
Holes
100
AcDbBlockReference
  2
block 6
 10
0.0
 20
0.0
 30
0.0
  0
ENDBLK
  5
62
330
5F
100
AcDbEntity
  8
0
100
AcDbBlockEnd
  0
BLOCK
  5
65
330
63
100
AcDbEntity
  8
0
100
AcDbBlockBegin
  2
block 6
 70
     0
 10
0.0
 20
0.0
 30
0.0
  3
block 6
  1

  0
SPLINE
  5
67
330
63
100
AcDbEntity
  8
Holes
 62
   174
370
    35
100
AcDbSpline
210
0.0
220
0.0
230
1.0
 70
    11
 71
     3
 72
    17
 73
    13
 74
     0
 42
0.0000000001
 43
0.0000000001
 12
1.0
 22
0.0
 32
0.0
 13
1.0
 23
0.0
 33
0.0
 40
0.0
 40
0.0
 40
0.0
 40
0.0
 40
1.0
 40
1.0
 40
1.0
 40
2.0
 40
2.0
 40
2.0
 40
3.0
 40
3.0
 40
3.0
 40
4.0
 40
4.0
 40
4.0
 40
4.0
 10
1.92800682981715
 20
-0.8140639466554881
 30
0.0
 10
1.92800682981715
 20
-0.8390689648550985
 30
0.0
 10
1.907736257465558
 20
-0.8593395372066652
 30
0.0
 10
1.882731239265947
 20
-0.8593395372066652
 30
0.0
 10
1.857726221066362
 20
-0.8593395372066652
 30
0.0
 10
1.83745564871477
 20
-0.8390689648550985
 30
0.0
 10
1.83745564871477
 20
-0.8140639466554881
 30
0.0
 10
1.83745564871477
 20
-0.7890589284558776
 30
0.0
 10
1.857726221066362
 20
-0.768788356104311
 30
0.0
 10
1.882731239265947
 20
-0.768788356104311
 30
0.0
 10
1.907736257465558
 20
-0.768788356104311
 30
0.0
 10
1.92800682981715
 20
-0.7890589284558776
 30
0.0
 10
1.92800682981715
 20
-0.8140639466554881
 30
0.0
  0
ENDBLK
  5
66
330
63
100
AcDbEntity
  8
0
100
AcDbBlockEnd
  0
BLOCK
  5
6A
330
68
100
AcDbEntity
  8
0
100
AcDbBlockBegin
  2
block 7
 70
     0
 10
0.0
 20
0.0
 30
0.0
  3
block 7
  1

  0
INSERT
  5
6D
330
68
100
AcDbEntity
  8
Holes
100
AcDbBlockReference
  2
block 8
 10
0.0
 20
0.0
 30
0.0
  0
ENDBLK
  5
6B
330
68
100
AcDbEntity
  8
0
100
AcDbBlockEnd
  0
BLOCK
  5
6E
330
6C
100
AcDbEntity
  8
0
100
AcDbBlockBegin
  2
block 8
 70
     0
 10
0.0
 20
0.0
 30
0.0
  3
block 8
  1

  0
SPLINE
  5
70
330
6C
100
AcDbEntity
  8
Holes
 62
   174
370
    35
100
AcDbSpline
210
0.0
220
0.0
230
1.0
 70
    11
 71
     3
 72
    17
 73
    13
 74
     0
 42
0.0000000001
 43
0.0000000001
 12
1.0
 22
0.0
 32
0.0
 13
1.0
 23
0.0
 33
0.0
 40
0.0
 40
0.0
 40
0.0
 40
0.0
 40
1.0
 40
1.0
 40
1.0
 40
2.0
 40
2.0
 40
2.0
 40
3.0
 40
3.0
 40
3.0
 40
4.0
 40
4.0
 40
4.0
 40
4.0
 10
0.32960589817819
 20
-0.768788356104311
 30
0.0
 10
0.32960589817819
 20
-0.7937933743039214
 30
0.0
 10
0.3093353258265981
 20
-0.8140639466554881
 30
0.0
 10
0.2843303076269876
 20
-0.8140639466554881
 30
0.0
 10
0.2593252894274024
 20
-0.8140639466554881
 30
0.0
 10
0.2390547170758105
 20
-0.7937933743039214
 30
0.0
 10
0.2390547170758105
 20
-0.768788356104311
 30
0.0
 10
0.2390547170758105
 20
-0.7437833379047004
 30
0.0
 10
0.2593252894274024
 20
-0.7235127655531338
 30
0.0
 10
0.2843303076269876
 20
-0.7235127655531338
 30
0.0
 10
0.3093353258265981
 20
-0.7235127655531338
 30
0.0
 10
0.32960589817819
 20
-0.7437833379047004
 30
0.0
 10
0.32960589817819
 20
-0.768788356104311
 30
0.0
  0
ENDBLK
  5
6F
330
6C
100
AcDbEntity
  8
0
100
AcDbBlockEnd
  0
BLOCK
  5
73
330
71
100
AcDbEntity
  8
0
100
AcDbBlockBegin
  2
block 9
 70
     0
 10
0.0
 20
0.0
 30
0.0
  3
block 9
  1

  0
INSERT
  5
76
330
71
100
AcDbEntity
  8
Holes
100
AcDbBlockReference
  2
block 10
 10
0.0
 20
0.0
 30
0.0
  0
ENDBLK
  5
74
330
71
100
AcDbEntity
  8
0
100
AcDbBlockEnd
  0
BLOCK
  5
77
330
75
100
AcDbEntity
  8
0
100
AcDbBlockBegin
  2
block 10
 70
     0
 10
0.0
 20
0.0
 30
0.0
  3
block 10
  1

  0
SPLINE
  5
79
330
75
100
AcDbEntity
  8
Holes
 62
   174
370
    35
100
AcDbSpline
210
0.0
220
0.0
230
1.0
 70
    11
 71
     3
 72
    17
 73
    13
 74
     0
 42
0.0000000001
 43
0.0000000001
 12
1.0
 22
0.0
 32
0.0
 13
1.0
 23
0.0
 33
0.0
 40
0.0
 40
0.0
 40
0.0
 40
0.0
 40
1.0
 40
1.0
 40
1.0
 40
2.0
 40
2.0
 40
2.0
 40
3.0
 40
3.0
 40
3.0
 40
4.0
 40
4.0
 40
4.0
 40
4.0
 10
0.2476131925228376
 20
-2.69065078129577
 30
0.0
 10
0.2476131925228376
 20
-2.71565579949538
 30
0.0
 10
0.2273426201712457
 20
-2.735926371846947
 30
0.0
 10
0.2023376019716352
 20
-2.735926371846947
 30
0.0
 10
0.17733258377205
 20
-2.735926371846947
 30
0.0
 10
0.1570620114204581
 20
-2.71565579949538
 30
0.0
 10
0.1570620114204581
 20
-2.69065078129577
 30
0.0
 10
0.1570620114204581
 20
-2.665645763096159
 30
0.0
 10
0.17733258377205
 20
-2.645375190744592
 30
0.0
 10
0.2023376019716352
 20
-2.645375190744592
 30
0.0
 10
0.2273426201712457
 20
-2.645375190744592
 30
0.0
 10
0.2476131925228376
 20
-2.665645763096159
 30
0.0
 10
0.2476131925228376
 20
-2.69065078129577
 30
0.0
  0
ENDBLK
  5
78
330
75
100
AcDbEntity
  8
0
100
AcDbBlockEnd
  0
BLOCK
  5
7D
330
7B
100
AcDbEntity
  8
0
100
AcDbBlockBegin
  2
block 11
 70
     0
 10
0.0
 20
0.0
 30
0.0
  3
block 11
  1

  0
SPLINE
  5
7F
330
7B
100
AcDbEntity
  8
LEDs
 62
   106
370
    35
100
AcDbSpline
210
0.0
220
0.0
230
1.0
 70
    11
 71
     3
 72
    23
 73
    19
 74
     0
 42
0.0000000001
 43
0.0000000001
 12
1.0
 22
0.0
 32
0.0
 13
1.0
 23
0.0
 33
0.0
 40
0.0
 40
0.0
 40
0.0
 40
0.0
 40
1.0
 40
1.0
 40
1.0
 40
2.0
 40
2.0
 40
2.0
 40
3.0
 40
3.0
 40
3.0
 40
4.0
 40
4.0
 40
4.0
 40
5.0
 40
5.0
 40
5.0
 40
6.0
 40
6.0
 40
6.0
 40
6.0
 10
1.124753129171369
 20
-0.7633763472375676
 30
0.0
 10
1.096766619479872
 20
-0.7446248322322617
 30
0.0
 10
1.058877954214368
 20
-0.7521112925452623
 30
0.0
 10
1.040126455615336
 20
-0.7800978132198679
 30
0.0
 10
1.021374951593038
 20
-0.8080843065051163
 30
0.0
 10
1.028861400923031
 20
-0.8459729881768933
 30
0.0
 10
1.056847905191338
 20
-0.8647244757928926
 30
0.0
 10
1.056861391154825
 20
-0.8647335038585753
 30
0.0
 10
1.05687486071204
 20
-0.8647425209412
 30
0.0
 10
1.056888346675553
 20
-0.8647515490069079
 30
0.0
 10
1.084874867350158
 20
-0.8835030476059399
 30
0.0
 10
1.122763510649545
 20
-0.876016620105487
 30
0.0
 10
1.141515020231635
 20
-0.8480300830246329
 30
0.0
 10
1.160266535236966
 20
-0.8200435733330601
 30
0.0
 10
1.152780063940908
 20
-0.7821549244739066
 30
0.0
 10
1.124793570655634
 20
-0.7634034204515829
 30
0.0
 10
1.124780084692146
 20
-0.7633943923859255
 30
0.0
 10
1.124766615134907
 20
-0.7633853753032503
 30
0.0
 10
1.124753129171369
 20
-0.7633763472375676
 30
0.0
  0
SPLINE
  5
80
330
7B
100
AcDbEntity
  8
LEDs
 62
   106
370
    35
100
AcDbSpline
210
0.0
220
0.0
230
1.0
 70
    11
 71
     3
 72
    23
 73
    19
 74
     0
 42
0.0000000001
 43
0.0000000001
 12
1.0
 22
0.0
 32
0.0
 13
1.0
 23
0.0
 33
0.0
 40
0.0
 40
0.0
 40
0.0
 40
0.0
 40
1.0
 40
1.0
 40
1.0
 40
2.0
 40
2.0
 40
2.0
 40
3.0
 40
3.0
 40
3.0
 40
4.0
 40
4.0
 40
4.0
 40
5.0
 40
5.0
 40
5.0
 40
6.0
 40
6.0
 40
6.0
 40
6.0
 10
1.124753129171394
 20
-1.219128867994881
 30
0.0
 10
1.096766619479897
 20
-1.200377352989575
 30
0.0
 10
1.058877954214394
 20
-1.207863813302576
 30
0.0
 10
1.040126455615362
 20
-1.235850333977181
 30
0.0
 10
1.021374951593063
 20
-1.26383682726243
 30
0.0
 10
1.028861400923056
 20
-1.301725508934207
 30
0.0
 10
1.056847905191363
 20
-1.320476996550206
 30
0.0
 10
1.056861391154851
 20
-1.320486024615889
 30
0.0
 10
1.056874860712065
 20
-1.320495041698513
 30
0.0
 10
1.056888346675578
 20
-1.320504069764221
 30
0.0
 10
1.084874867350183
 20
-1.339255568363253
 30
0.0
 10
1.12276351064957
 20
-1.3317691408628
 30
0.0
 10
1.14151502023166
 20
-1.303782603781946
 30
0.0
 10
1.160266535236992
 20
-1.275796094090373
 30
0.0
 10
1.152780063940933
 20
-1.23790744523122
 30
0.0
 10
1.124793570655659
 20
-1.219155941208896
 30
0.0
 10
1.124780084692171
 20
-1.219146913143239
 30
0.0
 10
1.124766615134932
 20
-1.219137896060564
 30
0.0
 10
1.124753129171394
 20
-1.219128867994881
 30
0.0
  0
SPLINE
  5
81
330
7B
100
AcDbEntity
  8
LEDs
 62
   106
370
    35
100
AcDbSpline
210
0.0
220
0.0
230
1.0
 70
    11
 71
     3
 72
    23
 73
    19
 74
     0
 42
0.0000000001
 43
0.0000000001
 12
1.0
 22
0.0
 32
0.0
 13
1.0
 23
0.0
 33
0.0
 40
0.0
 40
0.0
 40
0.0
 40
0.0
 40
1.0
 40
1.0
 40
1.0
 40
2.0
 40
2.0
 40
2.0
 40
3.0
 40
3.0
 40
3.0
 40
4.0
 40
4.0
 40
4.0
 40
5.0
 40
5.0
 40
5.0
 40
6.0
 40
6.0
 40
6.0
 40
6.0
 10
1.046015655782462
 20
-1.830336348029656
 30
0.0
 10
1.018029146090966
 20
-1.81158483302435
 30
0.0
 10
0.9801404808254625
 20
-1.819071293337351
 30
0.0
 10
0.9613889822264303
 20
-1.847057814011956
 30
0.0
 10
0.9426374782041319
 20
-1.875044307297205
 30
0.0
 10
0.9501239275341251
 20
-1.912932988968982
 30
0.0
 10
0.9781104318024315
 20
-1.931684476584981
 30
0.0
 10
0.9781239177659193
 20
-1.931693504650664
 30
0.0
 10
0.9781373873231334
 20
-1.931702521733289
 30
0.0
 10
0.9781508732866465
 20
-1.931711549798997
 30
0.0
 10
1.006137393961252
 20
-1.950463048398029
 30
0.0
 10
1.044026037260639
 20
-1.942976620897576
 30
0.0
 10
1.062777546842729
 20
-1.914990083816722
 30
0.0
 10
1.08152906184806
 20
-1.887003574125149
 30
0.0
 10
1.074042590552002
 20
-1.849114925265995
 30
0.0
 10
1.046056097266728
 20
-1.830363421243671
 30
0.0
 10
1.04604261130324
 20
-1.830354393178014
 30
0.0
 10
1.046029141746001
 20
-1.830345376095339
 30
0.0
 10
1.046015655782462
 20
-1.830336348029656
 30
0.0
  0
SPLINE
  5
82
330
7B
100
AcDbEntity
  8
LEDs
 62
   106
370
    35
100
AcDbSpline
210
0.0
220
0.0
230
1.0
 70
    11
 71
     3
 72
    23
 73
    19
 74
     0
 42
0.0000000001
 43
0.0000000001
 12
1.0
 22
0.0
 32
0.0
 13
1.0
 23
0.0
 33
0.0
 40
0.0
 40
0.0
 40
0.0
 40
0.0
 40
1.0
 40
1.0
 40
1.0
 40
2.0
 40
2.0
 40
2.0
 40
3.0
 40
3.0
 40
3.0
 40
4.0
 40
4.0
 40
4.0
 40
5.0
 40
5.0
 40
5.0
 40
6.0
 40
6.0
 40
6.0
 40
6.0
 10
0.3314965226687971
 20
-1.141924450236009
 30
0.0
 10
0.3035100129773001
 20
-1.123172935230703
 30
0.0
 10
0.265621347711797
 20
-1.130659395543704
 30
0.0
 10
0.2468698491127649
 20
-1.158645916218309
 30
0.0
 10
0.2281183450904665
 20
-1.186632409503558
 30
0.0
 10
0.2356047944204596
 20
-1.224521091175335
 30
0.0
 10
0.2635912986887661
 20
-1.243272578791334
 30
0.0
 10
0.2636047846522539
 20
-1.243281606857017
 30
0.0
 10
0.2636182542094679
 20
-1.243290623939642
 30
0.0
 10
0.263631740172981
 20
-1.243299652005349
 30
0.0
 10
0.2916182608475866
 20
-1.262051150604381
 30
0.0
 10
0.3295069041469736
 20
-1.254564723103929
 30
0.0
 10
0.3482584137290637
 20
-1.226578186023074
 30
0.0
 10
0.3670099287343949
 20
-1.198591676331502
 30
0.0
 10
0.3595234574383362
 20
-1.160703027472348
 30
0.0
 10
0.3315369641530626
 20
-1.141951523450024
 30
0.0
 10
0.3315234781895747
 20
-1.141942495384367
 30
0.0
 10
0.3315100086323355
 20
-1.141933478301692
 30
0.0
 10
0.3314965226687971
 20
-1.141924450236009
 30
0.0
  0
SPLINE
  5
83
330
7B
100
AcDbEntity
  8
LEDs
 62
   106
370
    35
100
AcDbSpline
210
0.0
220
0.0
230
1.0
 70
    11
 71
     3
 72
    23
 73
    19
 74
     0
 42
0.0000000001
 43
0.0000000001
 12
1.0
 22
0.0
 32
0.0
 13
1.0
 23
0.0
 33
0.0
 40
0.0
 40
0.0
 40
0.0
 40
0.0
 40
1.0
 40
1.0
 40
1.0
 40
2.0
 40
2.0
 40
2.0
 40
3.0
 40
3.0
 40
3.0
 40
4.0
 40
4.0
 40
4.0
 40
5.0
 40
5.0
 40
5.0
 40
6.0
 40
6.0
 40
6.0
 40
6.0
 10
0.5715780569748353
 20
-1.830336348029656
 30
0.0
 10
0.5435915472833383
 20
-1.81158483302435
 30
0.0
 10
0.5057028820178352
 20
-1.819071293337351
 30
0.0
 10
0.4869513834188031
 20
-1.847057814011956
 30
0.0
 10
0.4681998793965047
 20
-1.875044307297205
 30
0.0
 10
0.4756863287264979
 20
-1.912932988968982
 30
0.0
 10
0.5036728329948043
 20
-1.931684476584981
 30
0.0
 10
0.5036863189582921
 20
-1.931693504650664
 30
0.0
 10
0.5036997885155061
 20
-1.931702521733289
 30
0.0
 10
0.5037132744790193
 20
-1.931711549798997
 30
0.0
 10
0.5316997951536248
 20
-1.950463048398029
 30
0.0
 10
0.5695884384530119
 20
-1.942976620897576
 30
0.0
 10
0.5883399480351019
 20
-1.914990083816722
 30
0.0
 10
0.6070914630404332
 20
-1.887003574125149
 30
0.0
 10
0.5996049917443744
 20
-1.849114925265995
 30
0.0
 10
0.5716184984591007
 20
-1.830363421243671
 30
0.0
 10
0.5716050124956129
 20
-1.830354393178014
 30
0.0
 10
0.5715915429383737
 20
-1.830345376095339
 30
0.0
 10
0.5715780569748353
 20
-1.830336348029656
 30
0.0
  0
SPLINE
  5
84
330
7B
100
AcDbEntity
  8
LEDs
 62
   106
370
    35
100
AcDbSpline
210
0.0
220
0.0
230
1.0
 70
    11
 71
     3
 72
    23
 73
    19
 74
     0
 42
0.0000000001
 43
0.0000000001
 12
1.0
 22
0.0
 32
0.0
 13
1.0
 23
0.0
 33
0.0
 40
0.0
 40
0.0
 40
0.0
 40
0.0
 40
1.0
 40
1.0
 40
1.0
 40
2.0
 40
2.0
 40
2.0
 40
3.0
 40
3.0
 40
3.0
 40
4.0
 40
4.0
 40
4.0
 40
5.0
 40
5.0
 40
5.0
 40
6.0
 40
6.0
 40
6.0
 40
6.0
 10
1.681628703487907
 20
-1.828491729974101
 30
0.0
 10
1.65364219379641
 20
-1.809740214968795
 30
0.0
 10
1.615753528530907
 20
-1.817226675281795
 30
0.0
 10
1.5970020299319
 20
-1.845213195956401
 30
0.0
 10
1.578250525909576
 20
-1.873199689241649
 30
0.0
 10
1.585736975239595
 20
-1.911088370913426
 30
0.0
 10
1.613723479507876
 20
-1.929839858529426
 30
0.0
 10
1.613736965471364
 20
-1.929848886595108
 30
0.0
 10
1.613750435028578
 20
-1.929857903677733
 30
0.0
 10
1.613763920992116
 20
-1.929866931743441
 30
0.0
 10
1.641750441666722
 20
-1.948618430342473
 30
0.0
 10
1.679639084966109
 20
-1.94113200284202
 30
0.0
 10
1.698390594548174
 20
-1.913145465761166
 30
0.0
 10
1.717142109553505
 20
-1.885158956069593
 30
0.0
 10
1.709655638257471
 20
-1.84727030721044
 30
0.0
 10
1.681669144972198
 20
-1.828518803188116
 30
0.0
 10
1.68165565900871
 20
-1.828509775122459
 30
0.0
 10
1.681642189451446
 20
-1.828500758039783
 30
0.0
 10
1.681628703487907
 20
-1.828491729974101
 30
0.0
  0
SPLINE
  5
85
330
7B
100
AcDbEntity
  8
LEDs
 62
   106
370
    35
100
AcDbSpline
210
0.0
220
0.0
230
1.0
 70
    11
 71
     3
 72
    23
 73
    19
 74
     0
 42
0.0000000001
 43
0.0000000001
 12
1.0
 22
0.0
 32
0.0
 13
1.0
 23
0.0
 33
0.0
 40
0.0
 40
0.0
 40
0.0
 40
0.0
 40
1.0
 40
1.0
 40
1.0
 40
2.0
 40
2.0
 40
2.0
 40
3.0
 40
3.0
 40
3.0
 40
4.0
 40
4.0
 40
4.0
 40
5.0
 40
5.0
 40
5.0
 40
6.0
 40
6.0
 40
6.0
 40
6.0
 10
2.058004603168405
 20
-2.17342242216609
 30
0.0
 10
2.030018093476909
 20
-2.154670907160784
 30
0.0
 10
1.992129428211405
 20
-2.162157367473785
 30
0.0
 10
1.973377929612399
 20
-2.19014388814839
 30
0.0
 10
1.954626425590075
 20
-2.218130381433639
 30
0.0
 10
1.962112874920093
 20
-2.256019063105416
 30
0.0
 10
1.990099379188374
 20
-2.274770550721415
 30
0.0
 10
1.990112865151862
 20
-2.274779578787097
 30
0.0
 10
1.990126334709076
 20
-2.274788595869722
 30
0.0
 10
1.990139820672615
 20
-2.27479762393543
 30
0.0
 10
2.01812634134722
 20
-2.293549122534462
 30
0.0
 10
2.056014984646607
 20
-2.286062695034009
 30
0.0
 10
2.074766494228672
 20
-2.258076157953155
 30
0.0
 10
2.093518009234003
 20
-2.230089648261583
 30
0.0
 10
2.08603153793797
 20
-2.192200999402429
 30
0.0
 10
2.058045044652696
 20
-2.173449495380106
 30
0.0
 10
2.058031558689208
 20
-2.173440467314448
 30
0.0
 10
2.058018089131944
 20
-2.173431450231773
 30
0.0
 10
2.058004603168405
 20
-2.17342242216609
 30
0.0
  0
SPLINE
  5
86
330
7B
100
AcDbEntity
  8
LEDs
 62
   106
370
    35
100
AcDbSpline
210
0.0
220
0.0
230
1.0
 70
    11
 71
     3
 72
    23
 73
    19
 74
     0
 42
0.0000000001
 43
0.0000000001
 12
1.0
 22
0.0
 32
0.0
 13
1.0
 23
0.0
 33
0.0
 40
0.0
 40
0.0
 40
0.0
 40
0.0
 40
1.0
 40
1.0
 40
1.0
 40
2.0
 40
2.0
 40
2.0
 40
3.0
 40
3.0
 40
3.0
 40
4.0
 40
4.0
 40
4.0
 40
5.0
 40
5.0
 40
5.0
 40
6.0
 40
6.0
 40
6.0
 40
6.0
 10
1.960710414722093
 20
-1.202941392395852
 30
0.0
 10
1.932723905030596
 20
-1.184189877390546
 30
0.0
 10
1.894835239765093
 20
-1.191676337703547
 30
0.0
 10
1.876083741166086
 20
-1.219662858378153
 30
0.0
 10
1.857332237143762
 20
-1.247649351663401
 30
0.0
 10
1.864818686473781
 20
-1.285538033335178
 30
0.0
 10
1.892805190742062
 20
-1.304289520951177
 30
0.0
 10
1.89281867670555
 20
-1.30429854901686
 30
0.0
 10
1.892832146262764
 20
-1.304307566099485
 30
0.0
 10
1.892845632226302
 20
-1.304316594165193
 30
0.0
 10
1.920832152900908
 20
-1.323068092764225
 30
0.0
 10
1.958720796200295
 20
-1.315581665263772
 30
0.0
 10
1.97747230578236
 20
-1.287595128182918
 30
0.0
 10
1.996223820787691
 20
-1.259608618491345
 30
0.0
 10
1.988737349491657
 20
-1.221719969632191
 30
0.0
 10
1.960750856206384
 20
-1.202968465609868
 30
0.0
 10
1.960737370242896
 20
-1.20295943754421
 30
0.0
 10
1.960723900685631
 20
-1.202950420461535
 30
0.0
 10
1.960710414722093
 20
-1.202941392395852
 30
0.0
  0
SPLINE
  5
87
330
7B
100
AcDbEntity
  8
LEDs
 62
   106
370
    35
100
AcDbSpline
210
0.0
220
0.0
230
1.0
 70
    11
 71
     3
 72
    23
 73
    19
 74
     0
 42
0.0000000001
 43
0.0000000001
 12
1.0
 22
0.0
 32
0.0
 13
1.0
 23
0.0
 33
0.0
 40
0.0
 40
0.0
 40
0.0
 40
0.0
 40
1.0
 40
1.0
 40
1.0
 40
2.0
 40
2.0
 40
2.0
 40
3.0
 40
3.0
 40
3.0
 40
4.0
 40
4.0
 40
4.0
 40
5.0
 40
5.0
 40
5.0
 40
6.0
 40
6.0
 40
6.0
 40
6.0
 10
1.124753129171343
 20
-3.17394133293212
 30
0.0
 10
1.096766619479846
 20
-3.155189817926789
 30
0.0
 10
1.058877954214343
 20
-3.162676278239815
 30
0.0
 10
1.040126455615311
 20
-3.19066279891442
 30
0.0
 10
1.021374951593013
 20
-3.218649292199643
 30
0.0
 10
1.028861400923006
 20
-3.25653797387142
 30
0.0
 10
1.056847905191312
 20
-3.275289461487419
 30
0.0
 10
1.0568613911548
 20
-3.275298489553127
 30
0.0
 10
1.056874860712014
 20
-3.275307506635727
 30
0.0
 10
1.056888346675527
 20
-3.275316534701435
 30
0.0
 10
1.084874867350133
 20
-3.294068033300492
 30
0.0
 10
1.12276351064952
 20
-3.286581605800014
 30
0.0
 10
1.14151502023161
 20
-3.258595068719185
 30
0.0
 10
1.160266535236941
 20
-3.230608559027587
 30
0.0
 10
1.152780063940883
 20
-3.192719910168459
 30
0.0
 10
1.124793570655609
 20
-3.173968406146135
 30
0.0
 10
1.124780084692121
 20
-3.173959378080478
 30
0.0
 10
1.124766615134882
 20
-3.173950360997777
 30
0.0
 10
1.124753129171343
 20
-3.17394133293212
 30
0.0
  0
SPLINE
  5
88
330
7B
100
AcDbEntity
  8
LEDs
 62
   106
370
    35
100
AcDbSpline
210
0.0
220
0.0
230
1.0
 70
    11
 71
     3
 72
    23
 73
    19
 74
     0
 42
0.0000000001
 43
0.0000000001
 12
1.0
 22
0.0
 32
0.0
 13
1.0
 23
0.0
 33
0.0
 40
0.0
 40
0.0
 40
0.0
 40
0.0
 40
1.0
 40
1.0
 40
1.0
 40
2.0
 40
2.0
 40
2.0
 40
3.0
 40
3.0
 40
3.0
 40
4.0
 40
4.0
 40
4.0
 40
5.0
 40
5.0
 40
5.0
 40
6.0
 40
6.0
 40
6.0
 40
6.0
 10
0.1378447953872334
 20
-2.013183622197807
 30
0.0
 10
0.1098582856957364
 20
-1.994432107192476
 30
0.0
 10
0.0719696204302333
 20
-2.001918567505502
 30
0.0
 10
0.0532181218312012
 20
-2.029905088180107
 30
0.0
 10
0.0344666178089028
 20
-2.05789158146533
 30
0.0
 10
0.041953067138896
 20
-2.095780263137107
 30
0.0
 10
0.0699395714072024
 20
-2.114531750753106
 30
0.0
 10
0.0699530573706903
 20
-2.114540778818815
 30
0.0
 10
0.0699665269279042
 20
-2.114549795901414
 30
0.0
 10
0.0699800128914174
 20
-2.114558823967122
 30
0.0
 10
0.0979665335660229
 20
-2.133310322566179
 30
0.0
 10
0.13585517686541
 20
-2.125823895065701
 30
0.0
 10
0.1546066864475001
 20
-2.097837357984872
 30
0.0
 10
0.1733582014528312
 20
-2.069850848293274
 30
0.0
 10
0.1658717301567726
 20
-2.031962199434146
 30
0.0
 10
0.1378852368714989
 20
-2.013210695411822
 30
0.0
 10
0.137871750908011
 20
-2.013201667346165
 30
0.0
 10
0.1378582813507718
 20
-2.013192650263464
 30
0.0
 10
0.1378447953872334
 20
-2.013183622197807
 30
0.0
  0
SPLINE
  5
89
330
7B
100
AcDbEntity
  8
LEDs
 62
   106
370
    35
100
AcDbSpline
210
0.0
220
0.0
230
1.0
 70
    11
 71
     3
 72
    23
 73
    19
 74
     0
 42
0.0000000001
 43
0.0000000001
 12
1.0
 22
0.0
 32
0.0
 13
1.0
 23
0.0
 33
0.0
 40
0.0
 40
0.0
 40
0.0
 40
0.0
 40
1.0
 40
1.0
 40
1.0
 40
2.0
 40
2.0
 40
2.0
 40
3.0
 40
3.0
 40
3.0
 40
4.0
 40
4.0
 40
4.0
 40
5.0
 40
5.0
 40
5.0
 40
6.0
 40
6.0
 40
6.0
 40
6.0
 10
0.9849920337352007
 20
-2.418896335601201
 30
0.0
 10
0.9570055240437038
 20
-2.40014482059587
 30
0.0
 10
0.9191168587782006
 20
-2.407631280908895
 30
0.0
 10
0.9003653601791686
 20
-2.435617801583501
 30
0.0
 10
0.8816138561568702
 20
-2.463604294868724
 30
0.0
 10
0.8891003054868634
 20
-2.501492976540501
 30
0.0
 10
0.9170868097551698
 20
-2.5202444641565
 30
0.0
 10
0.9171002957186576
 20
-2.520253492222208
 30
0.0
 10
0.9171137652758716
 20
-2.520262509304807
 30
0.0
 10
0.9171272512393847
 20
-2.520271537370516
 30
0.0
 10
0.9451137719139903
 20
-2.539023035969573
 30
0.0
 10
0.9830024152133774
 20
-2.531536608469095
 30
0.0
 10
1.001753924795467
 20
-2.503550071388266
 30
0.0
 10
1.020505439800799
 20
-2.475563561696668
 30
0.0
 10
1.01301896850474
 20
-2.43767491283754
 30
0.0
 10
0.9850324752194662
 20
-2.418923408815216
 30
0.0
 10
0.9850189892559784
 20
-2.418914380749559
 30
0.0
 10
0.9850055196987392
 20
-2.418905363666858
 30
0.0
 10
0.9849920337352007
 20
-2.418896335601201
 30
0.0
  0
SPLINE
  5
8A
330
7B
100
AcDbEntity
  8
LEDs
 62
   106
370
    35
100
AcDbSpline
210
0.0
220
0.0
230
1.0
 70
    11
 71
     3
 72
    23
 73
    19
 74
     0
 42
0.0000000001
 43
0.0000000001
 12
1.0
 22
0.0
 32
0.0
 13
1.0
 23
0.0
 33
0.0
 40
0.0
 40
0.0
 40
0.0
 40
0.0
 40
1.0
 40
1.0
 40
1.0
 40
2.0
 40
2.0
 40
2.0
 40
3.0
 40
3.0
 40
3.0
 40
4.0
 40
4.0
 40
4.0
 40
5.0
 40
5.0
 40
5.0
 40
6.0
 40
6.0
 40
6.0
 40
6.0
 10
1.371834188721752
 20
-2.161309538120627
 30
0.0
 10
1.343847679030255
 20
-2.142558023115296
 30
0.0
 10
1.305959013764752
 20
-2.150044483428322
 30
0.0
 10
1.28720751516572
 20
-2.178031004102928
 30
0.0
 10
1.268456011143422
 20
-2.20601749738815
 30
0.0
 10
1.275942460473415
 20
-2.243906179059927
 30
0.0
 10
1.303928964741721
 20
-2.262657666675927
 30
0.0
 10
1.303942450705209
 20
-2.262666694741635
 30
0.0
 10
1.303955920262423
 20
-2.262675711824234
 30
0.0
 10
1.303969406225936
 20
-2.262684739889942
 30
0.0
 10
1.331955926900542
 20
-2.281436238488999
 30
0.0
 10
1.369844570199929
 20
-2.273949810988521
 30
0.0
 10
1.388596079782019
 20
-2.245963273907692
 30
0.0
 10
1.40734759478735
 20
-2.217976764216094
 30
0.0
 10
1.399861123491291
 20
-2.180088115356966
 30
0.0
 10
1.371874630206018
 20
-2.161336611334642
 30
0.0
 10
1.37186114424253
 20
-2.161327583268985
 30
0.0
 10
1.371847674685291
 20
-2.161318566186285
 30
0.0
 10
1.371834188721752
 20
-2.161309538120627
 30
0.0
  0
SPLINE
  5
8B
330
7B
100
AcDbEntity
  8
LEDs
 62
   106
370
    35
100
AcDbSpline
210
0.0
220
0.0
230
1.0
 70
    11
 71
     3
 72
    23
 73
    19
 74
     0
 42
0.0000000001
 43
0.0000000001
 12
1.0
 22
0.0
 32
0.0
 13
1.0
 23
0.0
 33
0.0
 40
0.0
 40
0.0
 40
0.0
 40
0.0
 40
1.0
 40
1.0
 40
1.0
 40
2.0
 40
2.0
 40
2.0
 40
3.0
 40
3.0
 40
3.0
 40
4.0
 40
4.0
 40
4.0
 40
5.0
 40
5.0
 40
5.0
 40
6.0
 40
6.0
 40
6.0
 40
6.0
 10
0.5923663495588648
 20
-2.675415917051977
 30
0.0
 10
0.5643798398673677
 20
-2.656664402046645
 30
0.0
 10
0.5264911746018647
 20
-2.664150862359671
 30
0.0
 10
0.5077396760028325
 20
-2.692137383034277
 30
0.0
 10
0.4889881719805342
 20
-2.7201238763195
 30
0.0
 10
0.4964746213105273
 20
-2.758012557991277
 30
0.0
 10
0.5244611255788337
 20
-2.776764045607277
 30
0.0
 10
0.5244746115423216
 20
-2.776773073672985
 30
0.0
 10
0.5244880810995356
 20
-2.776782090755584
 30
0.0
 10
0.5245015670630487
 20
-2.776791118821292
 30
0.0
 10
0.5524880877376542
 20
-2.795542617420349
 30
0.0
 10
0.5903767310370414
 20
-2.788056189919871
 30
0.0
 10
0.6091282406191314
 20
-2.760069652839042
 30
0.0
 10
0.6278797556244626
 20
-2.732083143147444
 30
0.0
 10
0.6203932843284039
 20
-2.694194494288316
 30
0.0
 10
0.5924067910431302
 20
-2.675442990265992
 30
0.0
 10
0.5923933050796424
 20
-2.675433962200334
 30
0.0
 10
0.5923798355224031
 20
-2.675424945117634
 30
0.0
 10
0.5923663495588648
 20
-2.675415917051977
 30
0.0
  0
SPLINE
  5
8C
330
7B
100
AcDbEntity
  8
LEDs
 62
   106
370
    35
100
AcDbSpline
210
0.0
220
0.0
230
1.0
 70
    11
 71
     3
 72
    23
 73
    19
 74
     0
 42
0.0000000001
 43
0.0000000001
 12
1.0
 22
0.0
 32
0.0
 13
1.0
 23
0.0
 33
0.0
 40
0.0
 40
0.0
 40
0.0
 40
0.0
 40
1.0
 40
1.0
 40
1.0
 40
2.0
 40
2.0
 40
2.0
 40
3.0
 40
3.0
 40
3.0
 40
4.0
 40
4.0
 40
4.0
 40
5.0
 40
5.0
 40
5.0
 40
6.0
 40
6.0
 40
6.0
 40
6.0
 10
1.746411041479961
 20
-2.55338203273229
 30
0.0
 10
1.718424531788464
 20
-2.534630517726959
 30
0.0
 10
1.680535866522961
 20
-2.542116978039985
 30
0.0
 10
1.661784367923929
 20
-2.570103498714591
 30
0.0
 10
1.64303286390163
 20
-2.598089991999814
 30
0.0
 10
1.650519313231623
 20
-2.635978673671591
 30
0.0
 10
1.67850581749993
 20
-2.65473016128759
 30
0.0
 10
1.678519303463418
 20
-2.654739189353298
 30
0.0
 10
1.678532773020631
 20
-2.654748206435897
 30
0.0
 10
1.678546258984145
 20
-2.654757234501605
 30
0.0
 10
1.70653277965875
 20
-2.673508733100662
 30
0.0
 10
1.744421422958137
 20
-2.666022305600184
 30
0.0
 10
1.763172932540227
 20
-2.638035768519356
 30
0.0
 10
1.781924447545558
 20
-2.610049258827758
 30
0.0
 10
1.7744379762495
 20
-2.572160609968629
 30
0.0
 10
1.746451482964226
 20
-2.553409105946305
 30
0.0
 10
1.746437997000738
 20
-2.553400077880648
 30
0.0
 10
1.746424527443499
 20
-2.553391060797948
 30
0.0
 10
1.746411041479961
 20
-2.55338203273229
 30
0.0
  0
ENDBLK
  5
7E
330
7B
100
AcDbEntity
  8
0
100
AcDbBlockEnd
  0
ENDSEC
  0
SECTION
  2
ENTITIES
  0
POLYLINE
  5
41
330
1F
100
AcDbEntity
  8
Dimension
 62
   223
370
    35
100
AcDb2dPolyline
 66
     1
 10
0.0
 20
0.0
 30
0.0
  0
VERTEX
  5
42
330
41
100
AcDbEntity
  8
Dimension
 62
   223
370
    35
100
AcDbVertex
100
AcDb2dVertex
 10
2.181527879503038
 20
-2.156944274902344
 30
0.0
  0
VERTEX
  5
43
330
41
100
AcDbEntity
  8
Dimension
 62
   223
370
    35
100
AcDbVertex
100
AcDb2dVertex
 10
2.181527879503038
 20
-2.790138244628906
 30
0.0
  0
VERTEX
  5
44
330
41
100
AcDbEntity
  8
Dimension
 62
   223
370
    35
100
AcDbVertex
100
AcDb2dVertex
 10
1.131111145019531
 20
-3.396527608235677
 30
0.0
  0
VERTEX
  5
45
330
41
100
AcDbEntity
  8
Dimension
 62
   223
370
    35
100
AcDbVertex
100
AcDb2dVertex
 10
1.09138912624783
 20
-3.419443766276042
 30
0.0
  0
VERTEX
  5
46
330
41
100
AcDbEntity
  8
Dimension
 62
   223
370
    35
100
AcDbVertex
100
AcDb2dVertex
 10
1.046805487738715
 20
-3.393610636393229
 30
0.0
  0
VERTEX
  5
47
330
41
100
AcDbEntity
  8
Dimension
 62
   223
370
    35
100
AcDbVertex
100
AcDb2dVertex
 10
0.0
 20
-2.789304945203993
 30
0.0
  0
VERTEX
  5
48
330
41
100
AcDbEntity
  8
Dimension
 62
   223
370
    35
100
AcDbVertex
100
AcDb2dVertex
 10
0.0
 20
-2.159861246744792
 30
0.0
  0
VERTEX
  5
49
330
41
100
AcDbEntity
  8
Dimension
 62
   223
370
    35
100
AcDbVertex
100
AcDb2dVertex
 10
0.0
 20
-1.487638685438368
 30
0.0
  0
VERTEX
  5
4A
330
41
100
AcDbEntity
  8
Dimension
 62
   223
370
    35
100
AcDbVertex
100
AcDb2dVertex
 10
0.0
 20
-0.930694580078125
 30
0.0
  0
VERTEX
  5
4B
330
41
100
AcDbEntity
  8
Dimension
 62
   223
370
    35
100
AcDbVertex
100
AcDb2dVertex
 10
0.6230553521050347
 20
0.0
 30
0.0
  0
VERTEX
  5
4C
330
41
100
AcDbEntity
  8
Dimension
 62
   223
370
    35
100
AcDbVertex
100
AcDb2dVertex
 10
1.562916225857205
 20
0.0
 30
0.0
  0
VERTEX
  5
4D
330
41
100
AcDbEntity
  8
Dimension
 62
   223
370
    35
100
AcDbVertex
100
AcDb2dVertex
 10
2.181527879503038
 20
-0.9279166327582464
 30
0.0
  0
VERTEX
  5
4E
330
41
100
AcDbEntity
  8
Dimension
 62
   223
370
    35
100
AcDbVertex
100
AcDb2dVertex
 10
2.181527879503038
 20
-1.491805182562934
 30
0.0
  0
VERTEX
  5
4F
330
41
100
AcDbEntity
  8
Dimension
 62
   223
370
    35
100
AcDbVertex
100
AcDb2dVertex
 10
2.181527879503038
 20
-2.156944274902344
 30
0.0
  0
SEQEND
  5
50
330
41
100
AcDbEntity
  8
Dimension
 62
   223
370
    35
  0
INSERT
  5
53
330
1F
100
AcDbEntity
  8
Holes
100
AcDbBlockReference
  2
block 2
 10
0.0
 20
0.0
 30
0.0
  0
INSERT
  5
7C
330
1F
100
AcDbEntity
  8
LEDs
100
AcDbBlockReference
  2
block 11
 10
0.0
 20
0.0
 30
0.0
  0
ENDSEC
  0
SECTION
  2
OBJECTS
  0
DICTIONARY
  5
C
330
0
100
AcDbDictionary
281
     1
  3
ACAD_GROUP
350
D
  3
ACAD_LAYOUT
350
1A
  3
ACAD_MATERIAL
350
3B
  3
ACAD_MLEADERSTYLE
350
8E
  3
ACAD_MLINESTYLE
350
17
  3
ACAD_PLOTSETTINGS
350
19
  3
ACAD_PLOTSTYLENAME
350
E
  3
ACAD_TABLESTYLE
350
8D
  3
ACAD_VISUALSTYLE
350
2A
  0
SUN
  5
3F
330
29
100
AcDbSun
 90
        1
290
     0
 63
     7
421
 16777215
 40
1.0
291
     1
 91
  2455826
 92
 54000000
292
     0
 70
     2
 71
   256
280
     1
  0
DICTIONARY
  5
D
102
{ACAD_REACTORS
330
C
102
}
330
C
100
AcDbDictionary
281
     1
  0
DICTIONARY
  5
1A
102
{ACAD_REACTORS
330
C
102
}
330
C
100
AcDbDictionary
281
     1
  3
Layout1
350
1E
  3
Layout2
350
26
  3
Model
350
22
  0
DICTIONARY
  5
3B
102
{ACAD_REACTORS
330
C
102
}
330
C
100
AcDbDictionary
281
     1
  3
ByBlock
350
3D
  3
ByLayer
350
3C
  3
Global
350
3E
  0
DICTIONARY
  5
8E
102
{ACAD_REACTORS
330
C
102
}
330
C
100
AcDbDictionary
281
     1
  0
DICTIONARY
  5
17
102
{ACAD_REACTORS
330
C
102
}
330
C
100
AcDbDictionary
281
     1
  3
Standard
350
18
  0
DICTIONARY
  5
19
102
{ACAD_REACTORS
330
C
102
}
330
C
100
AcDbDictionary
281
     1
  0
ACDBDICTIONARYWDFLT
  5
E
102
{ACAD_REACTORS
330
C
102
}
330
C
100
AcDbDictionary
281
     1
  3
Normal
350
F
100
AcDbDictionaryWithDefault
340
F
  0
DICTIONARY
  5
8D
102
{ACAD_REACTORS
330
C
102
}
330
C
100
AcDbDictionary
281
     1
  0
DICTIONARY
  5
2A
102
{ACAD_REACTORS
330
C
102
}
330
C
100
AcDbDictionary
281
     1
  3
2dWireframe
350
2F
  3
3D Hidden
350
31
  3
3dWireframe
350
30
  3
Basic
350
32
  3
Brighten
350
36
  3
ColorChange
350
3A
  3
Conceptual
350
34
  3
Dim
350
35
  3
Facepattern
350
39
  3
Flat
350
2B
  3
FlatWithEdges
350
2C
  3
Gouraud
350
2D
  3
GouraudWithEdges
350
2E
  3
Linepattern
350
38
  3
Realistic
350
33
  3
Thicken
350
37
  0
LAYOUT
  5
1E
102
{ACAD_REACTORS
330
1A
102
}
330
1A
100
AcDbPlotSettings
  1

  2
none_device
  4

  6

 40
0.0
 41
0.0
 42
0.0
 43
0.0
 44
0.0
 45
0.0
 46
0.0
 47
0.0
 48
0.0
 49
0.0
140
0.0
141
0.0
142
1.0
143
1.0
 70
   688
 72
     0
 73
     0
 74
     5
  7

 75
    16
 76
     0
 77
     2
 78
   300
147
1.0
148
0.0
149
0.0
100
AcDbLayout
  1
Layout1
 70
     1
 71
     1
 10
0.0
 20
0.0
 11
12.0
 21
9.0
 12
0.0
 22
0.0
 32
0.0
 14
1.000000000000000E+20
 24
1.000000000000000E+20
 34
1.000000000000000E+20
 15
-1.000000000000000E+20
 25
-1.000000000000000E+20
 35
-1.000000000000000E+20
146
0.0
 13
0.0
 23
0.0
 33
0.0
 16
1.0
 26
0.0
 36
0.0
 17
0.0
 27
1.0
 37
0.0
 76
     0
330
1B
  0
LAYOUT
  5
26
102
{ACAD_REACTORS
330
1A
102
}
330
1A
100
AcDbPlotSettings
  1

  2
none_device
  4

  6

 40
0.0
 41
0.0
 42
0.0
 43
0.0
 44
0.0
 45
0.0
 46
0.0
 47
0.0
 48
0.0
 49
0.0
140
0.0
141
0.0
142
1.0
143
1.0
 70
   688
 72
     0
 73
     0
 74
     5
  7

 75
    16
 76
     0
 77
     2
 78
   300
147
1.0
148
0.0
149
0.0
100
AcDbLayout
  1
Layout2
 70
     1
 71
     2
 10
0.0
 20
0.0
 11
0.0
 21
0.0
 12
0.0
 22
0.0
 32
0.0
 14
0.0
 24
0.0
 34
0.0
 15
0.0
 25
0.0
 35
0.0
146
0.0
 13
0.0
 23
0.0
 33
0.0
 16
1.0
 26
0.0
 36
0.0
 17
0.0
 27
1.0
 37
0.0
 76
     0
330
23
  0
LAYOUT
  5
22
102
{ACAD_REACTORS
330
1A
102
}
330
1A
100
AcDbPlotSettings
  1

  2
none_device
  4

  6

 40
0.0
 41
0.0
 42
0.0
 43
0.0
 44
0.0
 45
0.0
 46
0.0
 47
0.0
 48
0.0
 49
0.0
140
0.0
141
0.0
142
1.0
143
1.0
 70
  1712
 72
     0
 73
     0
 74
     0
  7

 75
     0
 76
     0
 77
     2
 78
   300
147
1.0
148
0.0
149
0.0
100
AcDbLayout
  1
Model
 70
     1
 71
     0
 10
0.0
 20
0.0
 11
12.0
 21
9.0
 12
0.0
 22
0.0
 32
0.0
 14
1.000000000000000E+20
 24
1.000000000000000E+20
 34
1.000000000000000E+20
 15
-1.000000000000000E+20
 25
-1.000000000000000E+20
 35
-1.000000000000000E+20
146
0.0
 13
0.0
 23
0.0
 33
0.0
 16
1.0
 26
0.0
 36
0.0
 17
0.0
 27
1.0
 37
0.0
 76
     0
330
1F
331
29
  0
MATERIAL
  5
3D
102
{ACAD_REACTORS
330
3B
102
}
330
3B
100
AcDbMaterial
  1
ByBlock
 72
     1
 94
      127
  0
MATERIAL
  5
3C
102
{ACAD_REACTORS
330
3B
102
}
330
3B
100
AcDbMaterial
  1
ByLayer
 72
     1
 94
      127
  0
MATERIAL
  5
3E
102
{ACAD_REACTORS
330
3B
102
}
330
3B
100
AcDbMaterial
  1
Global
 72
     1
 94
      127
  0
MLINESTYLE
  5
18
102
{ACAD_REACTORS
330
17
102
}
330
17
100
AcDbMlineStyle
  2
Standard
 70
     0
  3

 62
   256
 51
90.0
 52
90.0
 71
     2
 49
0.5
 62
   256
  6
BYLAYER
 49
-0.5
 62
   256
  6
BYLAYER
  0
ACDBPLACEHOLDER
  5
F
102
{ACAD_REACTORS
330
E
102
}
330
E
  0
VISUALSTYLE
  5
2F
102
{ACAD_REACTORS
330
2A
102
}
330
2A
100
AcDbVisualStyle
  2
2dWireframe
 70
     4
177
     2
291
     0
 71
     0
176
     1
 72
     2
176
     1
 73
     0
176
     1
 90
        0
176
     1
 40
-0.6
176
     1
 41
-30.0
176
     1
 62
     5
 63
     7
421
 16777215
176
     1
 74
     1
176
     1
 91
        4
176
     1
 64
     7
176
     1
 65
   257
176
     1
 75
     1
176
     1
175
     1
176
     1
 42
1.0
176
     1
 92
        0
176
     1
 66
   257
176
     1
 43
1.0
176
     1
 76
     1
176
     1
 77
     6
176
     1
 78
     2
176
     1
 67
     7
176
     1
 79
     5
176
     1
170
     0
176
     1
171
     0
176
     1
290
     0
176
     1
 93
        1
176
     1
 44
0.0
176
     1
173
     0
176
     1
  0
VISUALSTYLE
  5
31
102
{ACAD_REACTORS
330
2A
102
}
330
2A
100
AcDbVisualStyle
  2
3D Hidden
 70
     6
177
     2
291
     0
 71
     1
176
     1
 72
     2
176
     1
 73
     2
176
     1
 90
        0
176
     1
 40
-0.6
176
     1
 41
-30.0
176
     1
 62
     5
 63
     7
421
 16777215
176
     1
 74
     2
176
     1
 91
        2
176
     1
 64
     7
176
     1
 65
   257
176
     1
 75
     2
176
     1
175
     1
176
     1
 42
40.0
176
     1
 92
        0
176
     1
 66
   257
176
     1
 43
1.0
176
     1
 76
     1
176
     1
 77
     6
176
     1
 78
     2
176
     1
 67
     7
176
     1
 79
     3
176
     1
170
     0
176
     1
171
     0
176
     1
290
     0
176
     1
 93
        1
176
     1
 44
0.0
176
     1
173
     0
176
     1
  0
VISUALSTYLE
  5
30
102
{ACAD_REACTORS
330
2A
102
}
330
2A
100
AcDbVisualStyle
  2
3dWireframe
 70
     5
177
     2
291
     0
 71
     0
176
     1
 72
     2
176
     1
 73
     0
176
     1
 90
        0
176
     1
 40
-0.6
176
     1
 41
-30.0
176
     1
 62
     5
 63
     7
421
 16777215
176
     1
 74
     1
176
     1
 91
        4
176
     1
 64
     7
176
     1
 65
   257
176
     1
 75
     1
176
     1
175
     1
176
     1
 42
1.0
176
     1
 92
        0
176
     1
 66
   257
176
     1
 43
1.0
176
     1
 76
     1
176
     1
 77
     6
176
     1
 78
     2
176
     1
 67
     7
176
     1
 79
     5
176
     1
170
     0
176
     1
171
     0
176
     1
290
     0
176
     1
 93
        1
176
     1
 44
0.0
176
     1
173
     0
176
     1
  0
VISUALSTYLE
  5
32
102
{ACAD_REACTORS
330
2A
102
}
330
2A
100
AcDbVisualStyle
  2
Basic
 70
     7
177
     2
291
     1
 71
     1
176
     1
 72
     0
176
     1
 73
     1
176
     1
 90
        0
176
     1
 40
-0.6
176
     1
 41
-30.0
176
     1
 62
     5
 63
     7
421
 16777215
176
     1
 74
     0
176
     1
 91
        4
176
     1
 64
     7
176
     1
 65
   257
176
     1
 75
     1
176
     1
175
     1
176
     1
 42
1.0
176
     1
 92
        8
176
     1
 66
     7
176
     1
 43
1.0
176
     1
 76
     1
176
     1
 77
     6
176
     1
 78
     2
176
     1
 67
     7
176
     1
 79
     5
176
     1
170
     0
176
     1
171
     0
176
     1
290
     0
176
     1
 93
        1
176
     1
 44
0.0
176
     1
173
     0
176
     1
  0
VISUALSTYLE
  5
36
102
{ACAD_REACTORS
330
2A
102
}
330
2A
100
AcDbVisualStyle
  2
Brighten
 70
    12
177
     2
291
     1
 71
     2
176
     1
 72
     2
176
     1
 73
     0
176
     1
 90
        0
176
     1
 40
-0.6
176
     1
 41
-30.0
176
     1
 62
     5
 63
     7
421
 16777215
176
     1
 74
     1
176
     1
 91
        4
176
     1
 64
     7
176
     1
 65
   257
176
     1
 75
     1
176
     1
175
     1
176
     1
 42
1.0
176
     1
 92
        8
176
     1
 66
     7
176
     1
 43
1.0
176
     1
 76
     1
176
     1
 77
     6
176
     1
 78
     2
176
     1
 67
     7
176
     1
 79
     5
176
     1
170
     0
176
     1
171
     0
176
     1
290
     0
176
     1
 93
        1
176
     1
 44
50.0
176
     1
173
     0
176
     1
  0
VISUALSTYLE
  5
3A
102
{ACAD_REACTORS
330
2A
102
}
330
2A
100
AcDbVisualStyle
  2
ColorChange
 70
    16
177
     2
291
     1
 71
     2
176
     1
 72
     2
176
     1
 73
     3
176
     1
 90
        0
176
     1
 40
-0.6
176
     1
 41
-30.0
176
     1
 62
     5
 63
     8
421
  8421504
176
     1
 74
     1
176
     1
 91
        4
176
     1
 64
     7
176
     1
 65
   257
176
     1
 75
     1
176
     1
175
     1
176
     1
 42
1.0
176
     1
 92
        8
176
     1
 66
     8
424
  8421504
176
     1
 43
1.0
176
     1
 76
     1
176
     1
 77
     6
176
     1
 78
     2
176
     1
 67
     7
176
     1
 79
     5
176
     1
170
     0
176
     1
171
     0
176
     1
290
     0
176
     1
 93
        1
176
     1
 44
0.0
176
     1
173
     0
176
     1
  0
VISUALSTYLE
  5
34
102
{ACAD_REACTORS
330
2A
102
}
330
2A
100
AcDbVisualStyle
  2
Conceptual
 70
     9
177
     2
291
     0
 71
     3
176
     1
 72
     2
176
     1
 73
     0
176
     1
 90
        0
176
     1
 40
-0.6
176
     1
 41
-30.0
176
     1
 62
     5
 63
     7
421
 16777215
176
     1
 74
     2
176
     1
 91
        2
176
     1
 64
     7
176
     1
 65
   257
176
     1
 75
     1
176
     1
175
     1
176
     1
 42
40.0
176
     1
 92
        8
176
     1
 66
     7
176
     1
 43
1.0
176
     1
 76
     1
176
     1
 77
     6
176
     1
 78
     2
176
     1
 67
     7
176
     1
 79
     3
176
     1
170
     0
176
     1
171
     0
176
     1
290
     0
176
     1
 93
        1
176
     1
 44
0.0
176
     1
173
     0
176
     1
  0
VISUALSTYLE
  5
35
102
{ACAD_REACTORS
330
2A
102
}
330
2A
100
AcDbVisualStyle
  2
Dim
 70
    11
177
     2
291
     1
 71
     2
176
     1
 72
     2
176
     1
 73
     0
176
     1
 90
        0
176
     1
 40
-0.6
176
     1
 41
-30.0
176
     1
 62
     5
 63
     7
421
 16777215
176
     1
 74
     1
176
     1
 91
        4
176
     1
 64
     7
176
     1
 65
   257
176
     1
 75
     1
176
     1
175
     1
176
     1
 42
1.0
176
     1
 92
        8
176
     1
 66
     7
176
     1
 43
1.0
176
     1
 76
     1
176
     1
 77
     6
176
     1
 78
     2
176
     1
 67
     7
176
     1
 79
     5
176
     1
170
     0
176
     1
171
     0
176
     1
290
     0
176
     1
 93
        1
176
     1
 44
-50.0
176
     1
173
     0
176
     1
  0
VISUALSTYLE
  5
39
102
{ACAD_REACTORS
330
2A
102
}
330
2A
100
AcDbVisualStyle
  2
Facepattern
 70
    15
177
     2
291
     1
 71
     2
176
     1
 72
     2
176
     1
 73
     0
176
     1
 90
        0
176
     1
 40
-0.6
176
     1
 41
-30.0
176
     1
 62
     5
 63
     7
421
 16777215
176
     1
 74
     1
176
     1
 91
        4
176
     1
 64
     7
176
     1
 65
   257
176
     1
 75
     1
176
     1
175
     1
176
     1
 42
1.0
176
     1
 92
        8
176
     1
 66
     7
176
     1
 43
1.0
176
     1
 76
     1
176
     1
 77
     6
176
     1
 78
     2
176
     1
 67
     7
176
     1
 79
     5
176
     1
170
     0
176
     1
171
     0
176
     1
290
     0
176
     1
 93
        1
176
     1
 44
0.0
176
     1
173
     0
176
     1
  0
VISUALSTYLE
  5
2B
102
{ACAD_REACTORS
330
2A
102
}
330
2A
100
AcDbVisualStyle
  2
Flat
 70
     0
177
     2
291
     1
 71
     2
176
     1
 72
     1
176
     1
 73
     1
176
     1
 90
        2
176
     1
 40
-0.6
176
     1
 41
30.0
176
     1
 62
     5
 63
     7
421
 16777215
176
     1
 74
     0
176
     1
 91
        4
176
     1
 64
     7
176
     1
 65
   257
176
     1
 75
     1
176
     1
175
     1
176
     1
 42
1.0
176
     1
 92
        8
176
     1
 66
     7
176
     1
 43
1.0
176
     1
 76
     1
176
     1
 77
     6
176
     1
 78
     2
176
     1
 67
     7
176
     1
 79
     5
176
     1
170
     0
176
     1
171
     0
176
     1
290
     0
176
     1
 93
       13
176
     1
 44
0.0
176
     1
173
     0
176
     1
  0
VISUALSTYLE
  5
2C
102
{ACAD_REACTORS
330
2A
102
}
330
2A
100
AcDbVisualStyle
  2
FlatWithEdges
 70
     1
177
     2
291
     1
 71
     2
176
     1
 72
     1
176
     1
 73
     1
176
     1
 90
        2
176
     1
 40
-0.6
176
     1
 41
30.0
176
     1
 62
     5
 63
     7
421
 16777215
176
     1
 74
     1
176
     1
 91
        4
176
     1
 64
     7
176
     1
 65
   257
176
     1
 75
     1
176
     1
175
     1
176
     1
 42
1.0
176
     1
 92
        0
176
     1
 66
   257
176
     1
 43
1.0
176
     1
 76
     1
176
     1
 77
     6
176
     1
 78
     2
176
     1
 67
     7
176
     1
 79
     5
176
     1
170
     0
176
     1
171
     0
176
     1
290
     0
176
     1
 93
       13
176
     1
 44
0.0
176
     1
173
     0
176
     1
  0
VISUALSTYLE
  5
2D
102
{ACAD_REACTORS
330
2A
102
}
330
2A
100
AcDbVisualStyle
  2
Gouraud
 70
     2
177
     2
291
     1
 71
     2
176
     1
 72
     2
176
     1
 73
     1
176
     1
 90
        2
176
     1
 40
-0.6
176
     1
 41
30.0
176
     1
 62
     5
 63
     7
421
 16777215
176
     1
 74
     0
176
     1
 91
        4
176
     1
 64
     7
176
     1
 65
   257
176
     1
 75
     1
176
     1
175
     1
176
     1
 42
1.0
176
     1
 92
        0
176
     1
 66
     7
176
     1
 43
1.0
176
     1
 76
     1
176
     1
 77
     6
176
     1
 78
     2
176
     1
 67
     7
176
     1
 79
     5
176
     1
170
     0
176
     1
171
     0
176
     1
290
     0
176
     1
 93
       13
176
     1
 44
0.0
176
     1
173
     0
176
     1
  0
VISUALSTYLE
  5
2E
102
{ACAD_REACTORS
330
2A
102
}
330
2A
100
AcDbVisualStyle
  2
GouraudWithEdges
 70
     3
177
     2
291
     1
 71
     2
176
     1
 72
     2
176
     1
 73
     1
176
     1
 90
        2
176
     1
 40
-0.6
176
     1
 41
30.0
176
     1
 62
     5
 63
     7
421
 16777215
176
     1
 74
     1
176
     1
 91
        4
176
     1
 64
     7
176
     1
 65
   257
176
     1
 75
     1
176
     1
175
     1
176
     1
 42
1.0
176
     1
 92
        0
176
     1
 66
   257
176
     1
 43
1.0
176
     1
 76
     1
176
     1
 77
     6
176
     1
 78
     2
176
     1
 67
     7
176
     1
 79
     5
176
     1
170
     0
176
     1
171
     0
176
     1
290
     0
176
     1
 93
       13
176
     1
 44
0.0
176
     1
173
     0
176
     1
  0
VISUALSTYLE
  5
38
102
{ACAD_REACTORS
330
2A
102
}
330
2A
100
AcDbVisualStyle
  2
Linepattern
 70
    14
177
     2
291
     1
 71
     2
176
     1
 72
     2
176
     1
 73
     0
176
     1
 90
        0
176
     1
 40
-0.6
176
     1
 41
-30.0
176
     1
 62
     5
 63
     7
421
 16777215
176
     1
 74
     1
176
     1
 91
        4
176
     1
 64
     7
176
     1
 65
   257
176
     1
 75
     7
176
     1
175
     7
176
     1
 42
1.0
176
     1
 92
        8
176
     1
 66
     7
176
     1
 43
1.0
176
     1
 76
     1
176
     1
 77
     6
176
     1
 78
     2
176
     1
 67
     7
176
     1
 79
     5
176
     1
170
     0
176
     1
171
     0
176
     1
290
     0
176
     1
 93
        1
176
     1
 44
0.0
176
     1
173
     0
176
     1
  0
VISUALSTYLE
  5
33
102
{ACAD_REACTORS
330
2A
102
}
330
2A
100
AcDbVisualStyle
  2
Realistic
 70
     8
177
     2
291
     0
 71
     2
176
     1
 72
     2
176
     1
 73
     0
176
     1
 90
        0
176
     1
 40
-0.6
176
     1
 41
-30.0
176
     1
 62
     5
 63
     7
421
 16777215
176
     1
 74
     1
176
     1
 91
        0
176
     1
 64
     7
176
     1
 65
   257
176
     1
 75
     1
176
     1
175
     1
176
     1
 42
1.0
176
     1
 92
        8
176
     1
 66
     8
424
  7895160
176
     1
 43
1.0
176
     1
 76
     1
176
     1
 77
     6
176
     1
 78
     2
176
     1
 67
     7
176
     1
 79
     5
176
     1
170
     0
176
     1
171
     0
176
     1
290
     0
176
     1
 93
       13
176
     1
 44
0.0
176
     1
173
     0
176
     1
  0
VISUALSTYLE
  5
37
102
{ACAD_REACTORS
330
2A
102
}
330
2A
100
AcDbVisualStyle
  2
Thicken
 70
    13
177
     2
291
     1
 71
     2
176
     1
 72
     2
176
     1
 73
     0
176
     1
 90
        0
176
     1
 40
-0.6
176
     1
 41
-30.0
176
     1
 62
     5
 63
     7
421
 16777215
176
     1
 74
     1
176
     1
 91
        4
176
     1
 64
     7
176
     1
 65
   257
176
     1
 75
     1
176
     1
175
     1
176
     1
 42
1.0
176
     1
 92
       12
176
     1
 66
     7
176
     1
 43
1.0
176
     1
 76
     1
176
     1
 77
     6
176
     1
 78
     2
176
     1
 67
     7
176
     1
 79
     5
176
     1
170
     0
176
     1
171
     0
176
     1
290
     0
176
     1
 93
        1
176
     1
 44
0.0
176
     1
173
     0
176
     1
  0
ENDSEC
  0
EOF
