0
SECTION
2
HEADER
9
$INSUNITS
70
1
9
$ACADVER
1
AC1014
9
$HANDSEED
5
FFFF
0
ENDSEC
0
SECTION
2
TABLES
0
TABLE
2
VPORT
5
8
100
AcDbSymbolTable
0
ENDTAB
0
TABLE
2
LTYPE
5
5
100
AcDbSymbolTable
0
LTYPE
5
14
100
AcDbSymbolTableRecord
100
AcDbLinetypeTableRecord
2
BYBLOCK
70
0
0
LTYPE
5
15
100
AcDbSymbolTableRecord
100
AcDbLinetypeTableRecord
2
BYLAYER
70
0
0
ENDTAB
0
TABLE
2
LAYER
5
2
100
AcDbSymbolTable
70
2
0
LAYER
5
50
100
AcDbSymbolTableRecord
100
AcDbLayerTableRecord
2
0
70
0
6
CONTINUOUS
0
ENDTAB
0
TABLE
2
STYLE
5
3
100
AcDbSymbolTable
70
1
0
STYLE
5
11
100
AcDbSymbolTableRecord
100
AcDbTextStyleTableRecord
2
STANDARD
70
0
0
ENDTAB
0
TABLE
2
VIEW
5
6
100
AcDbSymbolTable
70
0
0
ENDTAB
0
TABLE
2
UCS
5
7
100
AcDbSymbolTable
70
0
0
ENDTAB
0
TABLE
2
APPID
5
9
100
AcDbSymbolTable
70
2
0
APPID
5
12
100
AcDbSymbolTableRecord
100
AcDbRegAppTableRecord
2
ACAD
70
0
0
ENDTAB
0
TABLE
2
DIMSTYLE
5
A
100
AcDbSymbolTable
70
1
0
ENDTAB
0
TABLE
2
BLOCK_RECORD
5
1
100
AcDbSymbolTable
70
1
0
BLOCK_RECORD
5
1F
100
AcDbSymbolTableRecord
100
AcDbBlockTableRecord
2
*MODEL_SPACE
0
BLOCK_RECORD
5
1B
100
AcDbSymbolTableRecord
100
AcDbBlockTableRecord
2
*PAPER_SPACE
0
ENDTAB
0
ENDSEC
0
SECTION
2
BLOCKS
0
BLOCK
5
20
100
AcDbEntity
100
AcDbBlockBegin
2
*MODEL_SPACE
0
ENDBLK
5
21
100
AcDbEntity
100
AcDbBlockEnd
0
BLOCK
5
1C
100
AcDbEntity
100
AcDbBlockBegin
2
*PAPER_SPACE
0
ENDBLK
5
1D
100
AcDbEntity
100
AcDbBlockEnd
0
ENDSEC
0
SECTION
2
ENTITIES
0
SPLINE
5
100
100
AcDbEntity
8
0
100
AcDbSpline
70
0
71
3
72
11
73
7
74
0
42
0.000000001
43
0.0000000001
44
0.0000000001
40
0
40
0
40
0
40
0
40
1
40
1
40
1
40
2
40
2
40
2
40
2
10
0.33149652266879709
20
2.2775193160400331
30
0
10
0.30351001297730013
20
2.2962708310453395
30
0
10
0.26562134771179696
20
2.2887843707323379
30
0
10
0.24686984911276491
20
2.2607978500577328
30
0
10
0.2281183450904665
20
2.2328113567724839
30
0
10
0.23560479442045956
20
2.1949226751007074
30
0
10
0.26359129868876607
20
2.1761711874847078
30
0
0
SPLINE
5
101
100
AcDbEntity
8
0
100
AcDbSpline
70
0
71
3
72
11
73
7
74
0
42
0.000000001
43
0.0000000001
44
0.0000000001
40
3
40
3
40
3
40
3
40
4
40
4
40
4
40
5
40
5
40
5
40
5
10
0.26363174017298102
20
2.1761441142706928
30
0
10
0.29161826084758657
20
2.1573926156716614
30
0
10
0.32950690414697353
20
2.1648790431721134
30
0
10
0.34825841372906363
20
2.1928655802529677
30
0
10
0.36700992873439492
20
2.2208520899445401
30
0
10
0.35952345743833619
20
2.2587407388036937
30
0
10
0.33153696415306261
20
2.277492242826018
30
0
0
SPLINE
5
102
100
AcDbEntity
8
0
100
AcDbSpline
70
0
71
3
72
11
73
7
74
0
42
0.000000001
43
0.0000000001
44
0.0000000001
40
0
40
0
40
0
40
0
40
1
40
1
40
1
40
2
40
2
40
2
40
2
10
1.124753129171369
20
2.6560674190384743
30
0
10
1.0967666194798722
20
2.6748189340437807
30
0
10
1.0588779542143676
20
2.6673324737307795
30
0
10
1.040126455615336
20
2.639345953056174
30
0
10
1.0213749515930377
20
2.611359459770926
30
0
10
1.0288614009230308
20
2.573470778099149
30
0
10
1.056847905191338
20
2.5547192904831495
30
0
0
SPLINE
5
103
100
AcDbEntity
8
0
100
AcDbSpline
70
0
71
3
72
11
73
7
74
0
42
0.000000001
43
0.0000000001
44
0.0000000001
40
3
40
3
40
3
40
3
40
4
40
4
40
4
40
5
40
5
40
5
40
5
10
1.056888346675553
20
2.5546922172691344
30
0
10
1.084874867350158
20
2.5359407186701022
30
0
10
1.1227635106495448
20
2.5434271461705551
30
0
10
1.1415150202316349
20
2.571413683251409
30
0
10
1.1602665352369657
20
2.5994001929429817
30
0
10
1.152780063940908
20
2.6372888418021359
30
0
10
1.124793570655634
20
2.6560403458244588
30
0
0
SPLINE
5
104
100
AcDbEntity
8
0
100
AcDbSpline
70
0
71
3
72
11
73
7
74
0
42
0.000000001
43
0.0000000001
44
0.0000000001
40
0
40
0
40
0
40
0
40
1
40
1
40
1
40
2
40
2
40
2
40
2
10
1.1247531291713939
20
2.2003148982811616
30
0
10
1.0967666194798971
20
2.219066413286467
30
0
10
1.058877954214394
20
2.2115799529734663
30
0
10
1.040126455615362
20
2.1835934322988613
30
0
10
1.021374951593063
20
2.1556069390136123
30
0
10
1.0288614009230559
20
2.1177182573418354
30
0
10
1.0568479051913628
20
2.0989667697258358
30
0
0
SPLINE
5
105
100
AcDbEntity
8
0
100
AcDbSpline
70
0
71
3
72
11
73
7
74
0
42
0.000000001
43
0.0000000001
44
0.0000000001
40
3
40
3
40
3
40
3
40
4
40
4
40
4
40
5
40
5
40
5
40
5
10
1.0568883466755778
20
2.0989396965118208
30
0
10
1.0848748673501829
20
2.080188197912789
30
0
10
1.1227635106495699
20
2.0876746254132423
30
0
10
1.14151502023166
20
2.1156611624940962
30
0
10
1.1602665352369919
20
2.143647672185669
30
0
10
1.1527800639409329
20
2.1815363210448222
30
0
10
1.1247935706556589
20
2.200287825067146
30
0
0
SPLINE
5
106
100
AcDbEntity
8
0
100
AcDbSpline
70
0
71
3
72
11
73
7
74
0
42
0.000000001
43
0.0000000001
44
0.0000000001
40
0
40
0
40
0
40
0
40
1
40
1
40
1
40
2
40
2
40
2
40
2
10
1.9607104147220931
20
2.2165023738801901
30
0
10
1.932723905030596
20
2.235253888885496
30
0
10
1.8948352397650929
20
2.2277674285724949
30
0
10
1.876083741166086
20
2.1997809078978889
30
0
10
1.8573322371437619
20
2.1717944146126409
30
0
10
1.8648186864737806
20
2.1339057329408644
30
0
10
1.8928051907420615
20
2.1151542453248653
30
0
0
SPLINE
5
107
100
AcDbEntity
8
0
100
AcDbSpline
70
0
71
3
72
11
73
7
74
0
42
0.000000001
43
0.0000000001
44
0.0000000001
40
3
40
3
40
3
40
3
40
4
40
4
40
4
40
5
40
5
40
5
40
5
10
1.8928456322263014
20
2.1151271721108489
30
0
10
1.9208321529009083
20
2.0963756735118171
30
0
10
1.9587207962002948
20
2.1038621010122704
30
0
10
1.9774723057823602
20
2.1318486380931243
30
0
10
1.9962238207876908
20
2.1598351477846971
30
0
10
1.9887373494916567
20
2.1977237966438508
30
0
10
1.9607508562063838
20
2.2164753006661742
30
0
0
SPLINE
5
108
100
AcDbEntity
8
0
100
AcDbSpline
70
0
71
3
72
11
73
7
74
0
42
0.000000001
43
0.0000000001
44
0.0000000001
40
3
40
3
40
3
40
3
40
4
40
4
40
4
40
5
40
5
40
5
40
5
10
0.97815087328664641
20
1.4877322164770452
30
0
10
1.0061373939612521
20
1.4689807178780132
30
0
10
1.0440260372606391
20
1.4764671453784661
30
0
10
1.062777546842729
20
1.5044536824593202
30
0
10
1.08152906184806
20
1.532440192150893
30
0
10
1.0740425905520021
20
1.5703288410100469
30
0
10
1.0460560972667277
20
1.5890803450323712
30
0
0
SPLINE
5
109
100
AcDbEntity
8
0
100
AcDbSpline
70
0
71
3
72
11
73
7
74
0
42
0.000000001
43
0.0000000001
44
0.0000000001
40
0
40
0
40
0
40
0
40
1
40
1
40
1
40
2
40
2
40
2
40
2
10
1.0460156557824618
20
1.5891074182463858
30
0
10
1.0180291460909658
20
1.6078589332516919
30
0
10
0.98014048082546235
20
1.6003724729386912
30
0
10
0.96138898222643043
20
1.572385952264086
30
0
10
0.94263747820413191
20
1.5443994589788375
30
0
10
0.95012392753412522
20
1.5065107773070603
30
0
10
0.97811043180243151
20
1.4877592896910614
30
0
0
SPLINE
5
110
100
AcDbEntity
8
0
100
AcDbSpline
70
0
71
3
72
11
73
7
74
0
42
0.000000001
43
0.0000000001
44
0.0000000001
40
0
40
0
40
0
40
0
40
1
40
1
40
1
40
2
40
2
40
2
40
2
10
0.57157805697483532
20
1.5891074182463858
30
0
10
0.54359154728333825
20
1.6078589332516919
30
0
10
0.5057028820178352
20
1.6003724729386912
30
0
10
0.48695138341880306
20
1.572385952264086
30
0
10
0.4681998793965047
20
1.5443994589788375
30
0
10
0.47568632872649785
20
1.5065107773070603
30
0
10
0.50367283299480425
20
1.4877592896910614
30
0
0
SPLINE
5
111
100
AcDbEntity
8
0
100
AcDbSpline
70
0
71
3
72
11
73
7
74
0
42
0.000000001
43
0.0000000001
44
0.0000000001
40
3
40
3
40
3
40
3
40
4
40
4
40
4
40
5
40
5
40
5
40
5
10
0.50371327447901926
20
1.4877322164770452
30
0
10
0.53169979515362475
20
1.4689807178780132
30
0
10
0.56958843845301188
20
1.4764671453784661
30
0
10
0.58833994803510192
20
1.5044536824593202
30
0
10
0.60709146304043304
20
1.532440192150893
30
0
10
0.59960499174437432
20
1.5703288410100469
30
0
10
0.57161849845910073
20
1.5890803450323712
30
0
0
SPLINE
5
112
100
AcDbEntity
8
0
100
AcDbSpline
70
0
71
3
72
11
73
7
74
0
42
0.000000001
43
0.0000000001
44
0.0000000001
40
0
40
0
40
0
40
0
40
1
40
1
40
1
40
2
40
2
40
2
40
2
10
0.13784479538723338
20
1.4062601440782354
30
0
10
0.10985828569573639
20
1.4250116590835664
30
0
10
0.071969620430233291
20
1.41752519877054
30
0
10
0.053218121831201191
20
1.3895386780959349
30
0
10
0.034466617808902797
20
1.3615521848107119
30
0
10
0.041953067138896009
20
1.3236635031389357
30
0
10
0.069939571407202403
20
1.3049120155229363
30
0
0
SPLINE
5
113
100
AcDbEntity
8
0
100
AcDbSpline
70
0
71
3
72
11
73
7
74
0
42
0.000000001
43
0.0000000001
44
0.0000000001
40
3
40
3
40
3
40
3
40
4
40
4
40
4
40
5
40
5
40
5
40
5
10
0.069980012891417392
20
1.3048849423089204
30
0
10
0.09796653356602289
20
1.2861334437098635
30
0
10
0.13585517686541002
20
1.2936198712103413
30
0
10
0.15460668644750011
20
1.3216064082911703
30
0
10
0.17335820145283121
20
1.3495929179827681
30
0
10
0.16587173015677259
20
1.3874815668418961
30
0
10
0.1378852368714989
20
1.4062330708642203
30
0
0
SPLINE
5
114
100
AcDbEntity
8
0
100
AcDbSpline
70
0
71
3
72
11
73
7
74
0
42
0.000000001
43
0.0000000001
44
0.0000000001
40
0
40
0
40
0
40
0
40
1
40
1
40
1
40
2
40
2
40
2
40
2
10
0.98499203373520072
20
1.000547430674841
30
0
10
0.95700552404370376
20
1.0192989456801722
30
0
10
0.91911685877820049
20
1.0118124853671471
30
0
10
0.90036536017916857
20
0.98382596469254124
30
0
10
0.88161385615687005
20
0.95583947140731795
30
0
10
0.88910030548686336
20
0.91795078973554123
30
0
10
0.91708680975516965
20
0.89919930211954191
30
0
0
SPLINE
5
115
100
AcDbEntity
8
0
100
AcDbSpline
70
0
71
3
72
11
73
7
74
0
42
0.000000001
43
0.0000000001
44
0.0000000001
40
3
40
3
40
3
40
3
40
4
40
4
40
4
40
5
40
5
40
5
40
5
10
0.91712725123938466
20
0.89917222890552595
30
0
10
0.94511377191399026
20
0.88042073030646895
30
0
10
0.98300241521337728
20
0.88790715780694718
30
0
10
1.0017539247954672
20
0.91589369488777594
30
0
10
1.0205054398007991
20
0.94388020457937405
30
0
10
1.0130189685047399
20
0.98176885343850195
30
0
10
0.98503247521946613
20
1.0005203574608263
30
0
0
SPLINE
5
116
100
AcDbEntity
8
0
100
AcDbSpline
70
0
71
3
72
11
73
7
74
0
42
0.000000001
43
0.0000000001
44
0.0000000001
40
0
40
0
40
0
40
0
40
1
40
1
40
1
40
2
40
2
40
2
40
2
10
0.59236634955886469
20
0.74402784922406517
30
0
10
0.56437983986736773
20
0.76277936422939718
30
0
10
0.52649117460186468
20
0.75529290391637127
30
0
10
0.50773967600283254
20
0.72730638324176511
30
0
10
0.48898817198053413
20
0.69931988995654215
30
0
10
0.49647462131052728
20
0.66143120828476509
30
0
10
0.52446112557883373
20
0.64267972066876544
30
0
0
SPLINE
5
117
100
AcDbEntity
8
0
100
AcDbSpline
70
0
71
3
72
11
73
7
74
0
42
0.000000001
43
0.0000000001
44
0.0000000001
40
3
40
3
40
3
40
3
40
4
40
4
40
4
40
5
40
5
40
5
40
5
10
0.52450156706304862
20
0.64265264745475048
30
0
10
0.55248808773765412
20
0.62390114885569281
30
0
10
0.59037673103704136
20
0.63138757635617138
30
0
10
0.6091282406191314
20
0.65937411343700014
30
0
10
0.62787975562446252
20
0.68736062312859825
30
0
10
0.62039328432840379
20
0.72524927198772648
30
0
10
0.59240679104313021
20
0.74400077601005055
30
0
0
SPLINE
5
118
100
AcDbEntity
8
0
100
AcDbSpline
70
0
71
3
72
11
73
7
74
0
42
0.000000001
43
0.0000000001
44
0.0000000001
40
0
40
0
40
0
40
0
40
1
40
1
40
1
40
2
40
2
40
2
40
2
10
1.3718341887217518
20
1.2581342281554153
30
0
10
1.3438476790302547
20
1.2768857431607465
30
0
10
1.3059590137647519
20
1.2693992828477207
30
0
10
1.2872075151657201
20
1.2414127621731139
30
0
10
1.268456011143422
20
1.2134262688878923
30
0
10
1.2759424604734151
20
1.1755375872161156
30
0
10
1.3039289647417209
20
1.1567860996001151
30
0
0
SPLINE
5
119
100
AcDbEntity
8
0
100
AcDbSpline
70
0
71
3
72
11
73
7
74
0
42
0.000000001
43
0.0000000001
44
0.0000000001
40
3
40
3
40
3
40
3
40
4
40
4
40
4
40
5
40
5
40
5
40
5
10
1.3039694062259357
20
1.1567590263861003
30
0
10
1.3319559269005417
20
1.1380075277870434
30
0
10
1.3698445701999287
20
1.1454939552875214
30
0
10
1.3885960797820189
20
1.1734804923683502
30
0
10
1.4073475947873499
20
1.2014670020599481
30
0
10
1.399861123491291
20
1.2393556509190762
30
0
10
1.3718746302060179
20
1.2581071549414002
30
0
0
SPLINE
5
120
100
AcDbEntity
8
0
100
AcDbSpline
70
0
71
3
72
11
73
7
74
0
42
0.000000001
43
0.0000000001
44
0.0000000001
40
0
40
0
40
0
40
0
40
1
40
1
40
1
40
2
40
2
40
2
40
2
10
1.6816287034879072
20
1.5909520363019414
30
0
10
1.6536421937964096
20
1.6097035513072473
30
0
10
1.615753528530907
20
1.6022170909942473
30
0
10
1.5970020299318997
20
1.5742305703196415
30
0
10
1.5782505259095758
20
1.546244077034393
30
0
10
1.5857369752395947
20
1.5083553953626161
30
0
10
1.6137234795078761
20
1.4896039077466161
30
0
0
SPLINE
5
121
100
AcDbEntity
8
0
100
AcDbSpline
70
0
71
3
72
11
73
7
74
0
42
0.000000001
43
0.0000000001
44
0.0000000001
40
3
40
3
40
3
40
3
40
4
40
4
40
4
40
5
40
5
40
5
40
5
10
1.6137639209921157
20
1.4895768345326013
30
0
10
1.6417504416667219
20
1.4708253359335692
30
0
10
1.6796390849661089
20
1.4783117634340222
30
0
10
1.6983905945481739
20
1.506298300514876
30
0
10
1.7171421095535049
20
1.534284810206449
30
0
10
1.709655638257471
20
1.572173459065602
30
0
10
1.6816691449721983
20
1.5909249630879261
30
0
0
SPLINE
5
122
100
AcDbEntity
8
0
100
AcDbSpline
70
0
71
3
72
11
73
7
74
0
42
0.000000001
43
0.0000000001
44
0.0000000001
40
0
40
0
40
0
40
0
40
1
40
1
40
1
40
2
40
2
40
2
40
2
10
2.0580046031684045
20
1.2460213441099524
30
0
10
2.0300180934769085
20
1.2647728591152581
30
0
10
1.992129428211405
20
1.2572863988022573
30
0
10
1.9733779296123988
20
1.2292998781276523
30
0
10
1.9546264255900747
20
1.2013133848424031
30
0
10
1.9621128749200931
20
1.1634247031706264
30
0
10
1.9900993791883737
20
1.1446732155546273
30
0
0
SPLINE
5
123
100
AcDbEntity
8
0
100
AcDbSpline
70
0
71
3
72
11
73
7
74
0
42
0.000000001
43
0.0000000001
44
0.0000000001
40
3
40
3
40
3
40
3
40
4
40
4
40
4
40
5
40
5
40
5
40
5
10
1.9901398206726149
20
1.144646142340612
30
0
10
2.0181263413472199
20
1.1258946437415802
30
0
10
2.0560149846466067
20
1.1333810712420329
30
0
10
2.0747664942286717
20
1.1613676083228877
30
0
10
2.0935180092340033
20
1.1893541180144591
30
0
10
2.0860315379379699
20
1.2272427668736132
30
0
10
2.0580450446526961
20
1.2459942708959362
30
0
0
SPLINE
5
124
100
AcDbEntity
8
0
100
AcDbSpline
70
0
71
3
72
11
73
7
74
0
42
0.000000001
43
0.0000000001
44
0.0000000001
40
0
40
0
40
0
40
0
40
1
40
1
40
1
40
2
40
2
40
2
40
2
10
1.746411041479961
20
0.86606173354375249
30
0
10
1.7184245317884639
20
0.88481324854908316
30
0
10
1.6805358665229608
20
0.87732678823605714
30
0
10
1.661784367923929
20
0.84934026756145109
30
0
10
1.6430328639016298
20
0.82135377427622847
30
0
10
1.6505193132316229
20
0.78346509260445163
30
0
10
1.6785058174999299
20
0.76471360498845242
30
0
0
SPLINE
5
125
100
AcDbEntity
8
0
100
AcDbSpline
70
0
71
3
72
11
73
7
74
0
42
0.000000001
43
0.0000000001
44
0.0000000001
40
3
40
3
40
3
40
3
40
4
40
4
40
4
40
5
40
5
40
5
40
5
10
1.6785462589841449
20
0.76468653177443746
30
0
10
1.7065327796587499
20
0.74593503317537979
30
0
10
1.744421422958137
20
0.75342146067585802
30
0
10
1.7631729325402268
20
0.78140799775668601
30
0
10
1.781924447545558
20
0.80939450744828378
30
0
10
1.7744379762494999
20
0.84728315630741347
30
0
10
1.7464514829642255
20
0.86603466032973753
30
0
0
CIRCLE
5
126
100
AcDbEntity
8
0
100
AcDbCircle
10
0.29756413142091431
20
2.2268317151553632
30
0
40
0.060997069009221562
210
0
220
0
230
1
0
CIRCLE
5
127
100
AcDbEntity
8
0
100
AcDbCircle
10
1.0908409586656185
20
2.1496137607894834
30
0
40
0.060997054448251382
210
0
220
0
230
1
0
CIRCLE
5
128
100
AcDbEntity
8
0
100
AcDbCircle
10
1.0908005171813535
20
2.6053933547608117
30
0
40
0.060997054448237178
210
0
220
0
230
1
0
CIRCLE
5
129
100
AcDbEntity
8
0
100
AcDbCircle
10
1.9267780234742224
20
2.1658147729955197
30
0
40
0.060997069009228438
210
0
220
0
230
1
0
CIRCLE
5
130
100
AcDbEntity
8
0
100
AcDbCircle
10
0.53764566572695238
20
1.5384198173617167
30
0
40
0.060997069009221479
210
0
220
0
230
1
0
CIRCLE
5
131
100
AcDbEntity
8
0
100
AcDbCircle
10
0.10391240413935061
20
1.3555725431935786
30
0
40
0.060997069009210647
210
0
220
0
230
1
0
CIRCLE
5
132
100
AcDbEntity
8
0
100
AcDbCircle
10
1.0120832645345541
20
1.5384198173617156
30
0
40
0.060997049594588716
210
0
220
0
230
1
0
CIRCLE
5
133
100
AcDbEntity
8
0
100
AcDbCircle
10
1.647716532982157
20
1.5402508988102639
30
0
40
0.060997054448251625
210
0
220
0
230
1
0
CIRCLE
5
134
100
AcDbEntity
8
0
100
AcDbCircle
10
1.3378815767317362
20
1.2074601638777653
30
0
40
0.060997054448226735
210
0
220
0
230
1
0
CIRCLE
5
135
100
AcDbEntity
8
0
100
AcDbCircle
10
0.95105964248731789
20
0.94985982979018435
30
0
40
0.060997069009210779
210
0
220
0
230
1
0
CIRCLE
5
136
100
AcDbEntity
8
0
100
AcDbCircle
10
0.55845417905308936
20
0.69332671173240046
30
0
40
0.060997054448240863
210
0
220
0
230
1
0
CIRCLE
5
137
100
AcDbEntity
8
0
100
AcDbCircle
10
1.7124584294899456
20
0.8153876692661024
30
0
40
0.060997054448226819
210
0
220
0
230
1
0
CIRCLE
5
138
100
AcDbEntity
8
0
100
AcDbCircle
10
2.0240722119205348
20
1.195333743225282
30
0
40
0.060997069009228154
210
0
220
0
230
1
0
SPLINE
5
139
100
AcDbEntity
8
0
100
AcDbSpline
70
0
71
3
72
11
73
7
74
0
42
0.000000001
43
0.0000000001
44
0.0000000001
40
0
40
0
40
0
40
0
40
1
40
1
40
1
40
2
40
2
40
2
40
2
10
1.1247531291713428
20
0.24550243334392247
30
0
10
1.096766619479846
20
0.26425394834925381
30
0
10
1.0588779542143429
20
0.25676748803622679
30
0
10
1.0401264556153109
20
0.2287809673616221
30
0
10
1.0213749515930131
20
0.20079447407639914
30
0
10
1.0288614009230059
20
0.16290579240462238
30
0
10
1.0568479051913118
20
0.14415430478862312
30
0
0
SPLINE
5
140
100
AcDbEntity
8
0
100
AcDbSpline
70
0
71
3
72
11
73
7
74
0
42
0.000000001
43
0.0000000001
44
0.0000000001
40
3
40
3
40
3
40
3
40
4
40
4
40
4
40
5
40
5
40
5
40
5
10
1.0568883466755268
20
0.1441272315746078
30
0
10
1.0848748673501327
20
0.12537573297555085
30
0
10
1.1227635106495197
20
0.13286216047602833
30
0
10
1.14151502023161
20
0.1608486975568571
30
0
10
1.160266535236941
20
0.18883520724845518
30
0
10
1.1527800639408832
20
0.22672385610758383
30
0
10
1.1247935706556089
20
0.24547536012990714
30
0
0
CIRCLE
5
141
100
AcDbEntity
8
0
100
AcDbCircle
10
1.0908207379234349
20
0.19481483245926512
30
0
40
0.060997049594578114
210
0
220
0
230
1
0
ENDSEC
0
SECTION
2
OBJECTS
0
DICTIONARY
5
C
100
AcDbDictionary
3
ACAD_GROUP
350
D
3
ACAD_MLINESTYLE
350
17
0
DICTIONARY
5
D
100
AcDbDictionary
0
DICTIONARY
5
1A
330
C
100
AcDbDictionary
0
DICTIONARY
5
17
100
AcDbDictionary
0
ENDSEC
0
EOF
