<?xml version="1.0" encoding="utf-8"?>
<!-- Generator: Adobe Illustrator 24.0.2, SVG Export Plug-In . SVG Version: 6.00 Build 0)  -->
<svg version="1.1" id="Layer_1" xmlns="http://www.w3.org/2000/svg" xmlns:xlink="http://www.w3.org/1999/xlink" x="0px" y="0px"
	 width="1440px" height="864px" viewBox="0 0 1440 864" style="enable-background:new 0 0 1440 864;" xml:space="preserve">
<style type="text/css">
	.st0{fill:none;stroke:#000000;stroke-miterlimit:10;}
	.st1{fill:#FFFF00;}
	.st2{fill:none;stroke:#08009F;stroke-miterlimit:113.3858;}
</style>
<path vector-effect="non-scaling-stroke" class="st0" d="M611.2,557.9l144,0.1l68-126.9L683.5,221.6L543.4,430.9L611.2,557.9z"/>
<path class="st1" d="M736.7,542.4c-3,0-6-0.9-8.5-2.6c-7-4.7-8.8-14.1-4.2-21.1c2.8-4.2,7.6-6.8,12.7-6.8c3,0,5.9,0.9,8.5,2.6
	l0.8,0.5l0.2,0.2c2.8,2.2,4.8,5.4,5.5,9c0.8,4,0,8-2.3,11.4C746.5,539.8,741.8,542.4,736.7,542.4
	C736.7,542.4,736.7,542.4,736.7,542.4z"/>
<path vector-effect="non-scaling-stroke" class="st2" d="M739.6,522.8c-2.4-1.6-5.6-1-7.2,1.4s-1,5.6,1.4,7.2c2.4,1.6,5.6,1,7.2-1.4
	S742,524.4,739.6,522.8C739.6,522.8,739.6,522.8,739.6,522.8L739.6,522.8z"/>
<path class="st1" d="M629.7,542.3c-3,0-5.9-0.9-8.5-2.6c-7-4.7-8.9-14.1-4.2-21.1c2.8-4.2,7.6-6.8,12.7-6.8c3,0,5.9,0.9,8.5,2.6
	c7,4.7,8.8,14.1,4.2,21.1C639.6,539.8,634.8,542.3,629.7,542.3C629.7,542.3,629.7,542.3,629.7,542.3z"/>
<path vector-effect="non-scaling-stroke" class="st2" d="M632.7,522.7c-2.4-1.6-5.6-1-7.2,1.4c-1.6,2.4-1,5.6,1.4,7.2
	c2.4,1.6,5.6,1,7.2-1.4S635,524.3,632.7,522.7z"/>
<path class="st1" d="M579.3,447.9c-3,0-5.9-0.9-8.5-2.6c-3.4-2.3-5.7-5.7-6.5-9.7c-0.8-4,0-8,2.3-11.4c2.8-4.2,7.6-6.8,12.7-6.8
	c3,0,5.9,0.9,8.5,2.6c7,4.7,8.8,14.1,4.2,21.1C589.2,445.4,584.4,447.9,579.3,447.9C579.3,447.9,579.3,447.9,579.3,447.9z"/>
<path vector-effect="non-scaling-stroke" class="st2" d="M582.2,428.4c-2.4-1.6-5.6-1-7.2,1.4c-1.6,2.4-1,5.6,1.4,7.2l0,0
	c2.4,1.6,5.6,1,7.2-1.4C585.3,433.2,584.6,430,582.2,428.4z"/>
<path class="st1" d="M787.2,448.1c-1.8,0-3.5-0.3-5.1-0.9h-1.9l-2.4-2.4c-6.2-4.9-7.6-13.8-3.2-20.4c2.8-4.2,7.6-6.7,12.6-6.7
	c2.8,0,5.4,0.7,7.8,2.1l0.1,0.1l1.4,0.9l0.2,0.2c2.8,2.2,4.8,5.4,5.5,9c0.8,4,0,8-2.3,11.4C797.1,445.5,792.3,448.1,787.2,448.1
	C787.2,448.1,787.2,448.1,787.2,448.1z"/>
<path vector-effect="non-scaling-stroke" class="st2" d="M790.2,428.5c-2.4-1.6-5.6-1-7.2,1.4c-1.6,2.4-1,5.6,1.4,7.2c0,0,0,0,0,0
	c2.4,1.6,5.6,1,7.2-1.4C793.2,433.4,792.5,430.1,790.2,428.5C790.2,428.5,790.2,428.5,790.2,428.5z"/>
<path class="st1" d="M683.5,272.8c-2.5,0-4.9-0.6-7-1.7l-0.3-0.1l-1.9-1.3l-0.2-0.2c-2.8-2.2-4.8-5.4-5.5-9c-0.8-4,0-8,2.3-11.4
	c2.8-4.2,7.6-6.7,12.6-6.7c2.9,0,5.8,0.8,8.2,2.4l0.2,0.1c3.4,2.3,5.7,5.7,6.5,9.7s0,8-2.3,11.4
	C693.3,270.3,688.6,272.8,683.5,272.8C683.5,272.8,683.5,272.8,683.5,272.8z"/>
<path vector-effect="non-scaling-stroke" class="st2" d="M686.4,253.2c-2.4-1.6-5.6-1-7.2,1.4c-1.6,2.4-1,5.6,1.4,7.2c0,0,0,0,0,0
	c2.4,1.6,5.6,1,7.2-1.4S688.8,254.8,686.4,253.2C686.4,253.2,686.4,253.2,686.4,253.2z"/>
</svg>
